<?xml version="1.0" encoding="UTF-8"?>
<svg version="1.1" xmlns="http://www.w3.org/2000/svg" width="4096" height="2728">

<path d="M0 0 C6.06217892 2.75300786 10.71501428 6.51137599 14.3046875 12.16015625 C15.2421875 15.66015625 15.2421875 15.66015625 15.3046875 18.16015625 C16.26628784 18.12208862 16.26628784 18.12208862 17.24731445 18.08325195 C24.88829945 17.91603075 32.00288657 18.89747896 39.4921875 20.34765625 C40.68980713 20.57686768 41.88742676 20.8060791 43.12133789 21.04223633 C51.27304917 22.65138093 59.11017826 24.52355118 66.94433594 27.32470703 C69.84823047 28.35254393 72.76808617 29.32962221 75.6875 30.3125 C101.70374755 39.19679855 127.18348238 50.59723032 149.3046875 67.16015625 C150.26503906 67.85625 151.22539063 68.55234375 152.21484375 69.26953125 C158.00623391 73.51606259 163.48702491 77.94593662 168.7578125 82.82421875 C170.15769257 84.10815783 171.56721708 85.38272591 173.01611328 86.61108398 C177.01210723 90.00823286 180.71471172 93.56323384 184.328125 97.3671875 C185.2046875 98.28306641 186.08125 99.19894531 186.984375 100.14257812 C188.78733645 102.03568765 190.5763995 103.94212777 192.3515625 105.86132812 C197.33347899 111.01490889 200.88218811 114.23469021 208.16723633 114.92822266 C212.46246718 115.39429568 215.06315058 117.62466212 217.70703125 120.89453125 C220.72029648 125.54107358 221.48699936 129.29281709 221.8046875 134.78515625 C222.92017634 145.66664055 229.18628814 154.25354783 234.71289062 163.45263672 C237.93511929 168.93339069 240.69558909 174.63658684 243.43701172 180.36865234 C244.27523985 182.09935523 245.15069091 183.81187719 246.02734375 185.5234375 C257.85403737 209.31152512 265.71668145 237.07849117 268.34155273 263.47045898 C268.73946904 271.07924872 268.73946904 271.07924872 272.4921875 277.26953125 C275.07965842 278.5280908 275.07965842 278.5280908 277.79296875 279.27734375 C282.13974171 280.80513642 284.10426063 284.28248092 286.3046875 288.16015625 C289.42332812 294.82270667 289.14036365 301.50307626 286.7421875 308.34765625 C283.95534735 314.67692349 279.90571712 317.99234703 273.66796875 320.79296875 C270.40340666 322.65410257 270.34802446 323.01033417 269.2109375 326.94140625 C269.05004632 328.51192162 268.91665721 330.08539681 268.8046875 331.66015625 C266.36488615 353.43816733 259.76003527 374.62046168 252.3046875 395.16015625 C251.89597412 396.30436035 251.89597412 396.30436035 251.47900391 397.47167969 C245.10743258 415.0343954 235.39510083 433.77568802 223.58007812 448.27685547 C221.56258874 451.2559736 222.68224166 453.70841111 223.3046875 457.16015625 C224.19118292 464.49761063 222.59432175 470.10540934 218.3046875 476.16015625 C214.42673959 479.88721125 210.35995058 483.21296979 204.76245117 483.11621094 C198.23998197 483.04133224 194.66640301 484.04274732 189.91796875 488.61328125 C188.58887042 490.02884509 187.26035714 491.44555921 185.96899414 492.89562988 C183.66121051 495.48120615 181.25441526 497.97194668 178.85546875 500.47265625 C178.38279572 500.96952942 177.91012268 501.46640259 177.42312622 501.97833252 C171.60144931 508.0397159 165.0572916 512.96584599 158.21582031 517.8046875 C156.34913245 519.12863372 154.50851969 520.48243371 152.671875 521.84765625 C144.5386471 527.84989262 136.07790459 533.14860075 127.3046875 538.16015625 C126.0995752 538.85189941 126.0995752 538.85189941 124.87011719 539.55761719 C107.21954083 549.63887617 107.21954083 549.63887617 98.5859375 552.41015625 C96.32426705 553.15371914 94.26383864 554.07239003 92.1171875 555.09765625 C86.0806424 557.86032734 79.69036108 559.61888393 73.34375 561.52026367 C71.99617045 561.94315711 70.6568853 562.39356028 69.328125 562.87231445 C62.15895838 565.4457969 54.76989646 566.79328401 47.3046875 568.22265625 C44.67929915 568.73239991 42.05452456 569.24523137 39.4296875 569.7578125 C38.19790771 569.99725586 36.96612793 570.23669922 35.69702148 570.48339844 C32.83846511 571.05366963 29.99473542 571.65971363 27.15234375 572.3046875 C23.18934949 573.18579993 19.33644515 573.72032814 15.3046875 574.16015625 C14.9953125 575.67609375 14.9953125 575.67609375 14.6796875 577.22265625 C12.96035496 583.12092206 9.00836835 587.42631427 3.8046875 590.59765625 C-2.57165569 593.41796189 -10.65046249 593.58626561 -17.19921875 591.27734375 C-24.86636011 586.88364984 -27.84199688 580.14054215 -30.6953125 572.16015625 C-31.26636719 572.12575439 -31.83742188 572.09135254 -32.42578125 572.0559082 C-53.11664588 570.72983431 -73.23217262 567.48245402 -92.6953125 560.16015625 C-93.94392839 559.69118779 -95.19263181 559.22245234 -96.44140625 558.75390625 C-97.45533447 558.37177979 -97.45533447 558.37177979 -98.48974609 557.98193359 C-100.02857024 557.40857937 -101.57087419 556.844516 -103.11572266 556.28759766 C-118.5916495 550.70386219 -132.6390611 543.69303051 -146.6953125 535.16015625 C-147.76096436 534.51747803 -147.76096436 534.51747803 -148.84814453 533.86181641 C-157.59647885 528.54428756 -165.68552592 522.5116667 -173.6953125 516.16015625 C-174.901875 515.24556641 -174.901875 515.24556641 -176.1328125 514.3125 C-181.81789985 509.94304942 -187.03865644 505.12933857 -192.2578125 500.22265625 C-193.37422119 499.17621948 -193.37422119 499.17621948 -194.51318359 498.10864258 C-197.57961651 495.21044374 -200.61504012 492.33059063 -203.40234375 489.16015625 C-207.21798924 484.87013322 -209.39341406 482.74768343 -215.2578125 482.34765625 C-216.64033203 482.32832031 -216.64033203 482.32832031 -218.05078125 482.30859375 C-222.86216848 482.03853066 -226.68435162 480.02410171 -230.19140625 476.7734375 C-235.05718624 471.27236279 -236.9722891 466.42335519 -236.91015625 459.15234375 C-237.15276821 451.26584096 -239.92831802 445.70917653 -244.15158081 439.03521729 C-245.6722931 436.629447 -247.12411129 434.18447679 -248.58100891 431.73971558 C-249.30279311 430.52916644 -250.02759458 429.32041077 -250.75553894 428.11355591 C-259.06129781 414.31144764 -264.78300827 399.0973029 -270.6953125 384.16015625 C-271.10209229 383.16653076 -271.10209229 383.16653076 -271.51708984 382.15283203 C-275.89129033 371.13643223 -277.6309945 359.41895336 -279.48510742 347.77636719 C-279.88561315 345.2676131 -280.29678798 342.76076316 -280.70898438 340.25390625 C-280.96938298 338.64202921 -281.22917072 337.03005335 -281.48828125 335.41796875 C-281.61011276 334.67725128 -281.73194427 333.93653381 -281.85746765 333.17337036 C-282.4942987 329.12788318 -282.81966437 325.254512 -282.6953125 321.16015625 C-283.5203125 321.11890625 -284.3453125 321.07765625 -285.1953125 321.03515625 C-291.63198431 319.4259883 -296.09241225 315.51860115 -299.6328125 309.97265625 C-302.99772287 304.189573 -303.65500027 298.57634658 -302.234375 292.0390625 C-300.10634101 285.61740698 -296.37194133 280.76613355 -290.5703125 277.28515625 C-288.25795125 276.38031924 -286.09953512 275.72767661 -283.6953125 275.16015625 C-283.55283081 273.97764282 -283.55283081 273.97764282 -283.4074707 272.77124023 C-280.32566768 247.56264021 -276.10849931 223.87351537 -266.6953125 200.16015625 C-266.32277344 199.19464844 -265.95023438 198.22914063 -265.56640625 197.234375 C-260.31485141 183.65153993 -254.14891649 170.97918934 -246.7734375 158.421875 C-245.74656202 156.6684568 -244.72053379 154.91454217 -243.6953125 153.16015625 C-243.13271729 152.20463867 -242.57012207 151.24912109 -241.99047852 150.26464844 C-241.44576904 149.31106445 -240.90105957 148.35748047 -240.33984375 147.375 C-239.84589111 146.52156006 -239.35193848 145.66812012 -238.84301758 144.78881836 C-237.52945771 141.78028845 -237.27126419 139.30076283 -237.1328125 136.03515625 C-236.82677962 128.86656792 -234.75279899 124.0084463 -229.46875 119.0859375 C-224.67968195 115.24064345 -221.27360878 113.00684761 -215.0078125 113.09765625 C-214.19957031 113.10667969 -213.39132812 113.11570312 -212.55859375 113.125 C-211.94371094 113.13660156 -211.32882812 113.14820313 -210.6953125 113.16015625 C-210.46972656 112.61875 -210.24414062 112.07734375 -210.01171875 111.51953125 C-208.2884126 108.43087572 -206.03238575 105.97808602 -203.6328125 103.41015625 C-203.10896973 102.84868896 -202.58512695 102.28722168 -202.04541016 101.70874023 C-183.74127891 82.35480544 -163.66397839 66.60282507 -140.6953125 53.16015625 C-139.45394531 52.42321533 -139.45394531 52.42321533 -138.1875 51.67138672 C-125.21298863 44.01282098 -111.88382818 38.19518298 -97.6953125 33.16015625 C-96.80650391 32.84062988 -95.91769531 32.52110352 -95.00195312 32.19189453 C-77.20397469 25.88212197 -58.12039381 20.79766078 -39.23388672 19.54736328 C-36.24676108 19.34631363 -33.56502794 19.0392037 -30.6953125 18.16015625 C-28.67275907 15.78720431 -27.7776905 13.71082862 -26.76171875 10.7734375 C-24.73503273 5.80694318 -20.26761486 2.70979885 -15.76953125 0 C-10.76291578 -2.02716069 -5.07826144 -1.58235682 0 0 Z " fill="#0A0A0A" transform="translate(1237.6953125,1085.83984375)"/>
<path d="M0 0 C0.99 0.33 1.98 0.66 3 1 C3.20898611 10.77058767 3.36867196 20.54063962 3.46630955 30.31301117 C3.51318418 34.85140698 3.57670444 39.3882685 3.67895508 43.92578125 C3.77710626 48.30905606 3.83063075 52.69086027 3.85389519 57.07514954 C3.87046206 58.74342496 3.90281684 60.41162423 3.95157051 62.07926941 C4.31957362 75.19458159 4.31957362 75.19458159 1.04196167 79.67895508 C-1.36743164 81.77539062 -1.36743164 81.77539062 -3.7691803 83.37365723 C-6.83384066 85.60789795 -8.35462501 88.29855684 -9.6875 91.8125 C-10.73590789 99.15135522 -10.0048051 104.68338321 -6 111 C-2.24108801 115.09032419 2.02193345 118.70608342 7.69140625 119.265625 C8.63886719 119.26046875 9.58632812 119.2553125 10.5625 119.25 C11.98755859 119.25773437 11.98755859 119.25773437 13.44140625 119.265625 C16.24099273 119.17576075 16.24099273 119.17576075 19 117 C22.36600412 116.84344167 24.31262918 117.41367127 26.88671875 119.609375 C28.25837209 120.99989194 29.61158977 122.40875371 30.94921875 123.83203125 C35.47365959 128.61501157 40.65955616 132.71491675 45.6875 136.95239258 C46.244375 137.42185303 46.80125 137.89131348 47.375 138.375 C47.93574219 138.84768311 48.49648437 139.32036621 49.07421875 139.80737305 C54.14802362 144.09793865 59.08562184 148.52799631 64 153 C65.62436435 154.45904132 67.24937427 155.91736421 68.875 157.375 C72.7446001 160.85825334 76.59663838 164.36012846 80.4375 167.875 C80.94587402 168.3395459 81.45424805 168.8040918 81.97802734 169.28271484 C83.32366284 170.51640213 84.66215897 171.7578645 86 173 C86.91652344 173.72509766 86.91652344 173.72509766 87.8515625 174.46484375 C89.62105679 176.83018816 89.14096491 178.79829831 88.9375 181.6875 C88.75530727 187.69985998 89.96486493 190.87820956 93 196 C93 196.66 93 197.32 93 198 C93.70125 198.268125 94.4025 198.53625 95.125 198.8125 C98 200 98 200 100.625 201.625 C106.07121328 203.84382763 111.69966447 204.02140168 117.34765625 202.2734375 C122.53843668 199.88664874 125.41620195 196.77164659 128.25 191.8125 C130.29846899 184.13074128 129.28215149 178.03312096 125.4140625 171.12890625 C122.58934432 166.87622281 119.50204269 165.11134896 114.83203125 163.40234375 C114.11378174 163.13800537 113.39553223 162.87366699 112.65551758 162.60131836 C112.10919678 162.4028833 111.56287598 162.20444824 111 162 C110.91959473 161.07364746 110.83918945 160.14729492 110.75634766 159.19287109 C110.4499991 155.6849398 110.14016308 152.17734996 109.828125 148.66992188 C109.6949374 147.16515809 109.56305533 145.66027805 109.43261719 144.15527344 C108.67483313 135.42326943 107.77263573 126.76472709 106.44140625 118.09863281 C105.1107031 108.75721447 104.8472044 99.42239551 105 90 C107.9826906 88.47551369 110.818202 87.06059933 114 86 C114.309375 85.34 114.61875 84.68 114.9375 84 C116 82 116 82 117.79316711 81.33442688 C120.2284834 80.96537527 121.96076719 81.16725571 124.37182617 81.64916992 C125.23259766 81.81664734 126.09336914 81.98412476 126.98022461 82.15667725 C127.90843018 82.34602844 128.83663574 82.53537964 129.79296875 82.73046875 C130.76411621 82.92102844 131.73526367 83.11158813 132.73583984 83.30792236 C135.88785834 83.92726172 139.03759308 84.55751862 142.1875 85.1875 C146.46766958 86.0316055 150.74917728 86.86873176 155.03125 87.703125 C156.07717819 87.9073558 157.12310638 88.11158661 158.20072937 88.32200623 C167.15014631 90.05684924 176.11716417 91.57360402 185.14331055 92.8581543 C186.01769775 92.98617432 186.89208496 93.11419434 187.79296875 93.24609375 C188.5202417 93.34591553 189.24751465 93.4457373 189.99682617 93.54858398 C192.3095445 94.06975598 194.01651601 94.6899393 196 96 C196.55243239 97.98225739 197.09637015 99.96914943 197.53125 101.98046875 C198.21279504 104.91679196 199.08036492 106.64689894 201 109 C202.55988001 109.83822733 204.1226976 110.6709981 205.6875 111.5 C207.97900391 112.98071289 207.97900391 112.98071289 210 115 C210.45410156 117.57250977 210.45410156 117.57250977 210.328125 120.62890625 C210.28776123 121.78600098 210.24739746 122.9430957 210.20581055 124.13525391 C210.13789307 125.41062012 210.06997559 126.68598633 210 128 C209.94742084 129.38324259 209.89643969 130.76654671 209.84692383 132.14990234 C209.70170158 135.83142056 209.47556565 139.5026246 209.21264648 143.17749023 C209.11178445 144.69566884 209.02804583 146.21507352 208.96069336 147.73510742 C208.38478955 160.48531816 208.38478955 160.48531816 204.98803711 164.20068359 C202.71713282 165.6590455 200.42415361 166.82233461 198 168 C194.01641751 172.40253323 191.65815067 177.14904441 191.4375 183.125 C191.96797769 190.81692646 194.56736409 196.56736409 200 202 C205.44647183 205.98522329 211.52922625 205.45286707 218 205 C218.74306396 204.70109863 219.48612793 204.40219727 220.25170898 204.09423828 C223.52797246 203.98189594 223.89308341 204.43188896 226.2421875 206.56103516 C227.46862091 207.78842011 228.67859637 209.03238788 229.875 210.2890625 C230.52194824 210.94450043 231.16889648 211.59993835 231.83544922 212.27523804 C233.90478417 214.37817784 235.95236839 216.5009427 238 218.625 C239.37881555 220.03391646 240.7590092 221.44148567 242.140625 222.84765625 C244.68835792 225.44436926 247.22775867 228.04865945 249.7578125 230.66259766 C254.63603713 235.73405082 254.63603713 235.73405082 259.75 240.5625 C261.37120891 242.42689025 261.92467797 243.51437293 262 246 C259.82640319 248.86019887 258.59648444 249.89285271 255.02250671 250.53485107 C253.86225479 250.55009827 252.70200287 250.56534546 251.5065918 250.58105469 C250.18809738 250.6065741 248.86960297 250.63209351 247.51115417 250.65838623 C246.07384835 250.66450224 244.63653463 250.66895739 243.19921875 250.671875 C241.71954332 250.68473587 240.23987297 250.69819296 238.76020813 250.71221924 C235.65911072 250.73615585 232.55845865 250.74358221 229.45727539 250.74121094 C225.49527006 250.74080495 221.536141 250.7953549 217.5748167 250.86429977 C214.51793992 250.90892468 211.46175014 250.91688359 208.40458107 250.91477203 C206.94494543 250.91947319 205.4852893 250.93706082 204.02597618 250.9681015 C192.5791678 251.18874987 192.5791678 251.18874987 188.64492798 248.22717285 C186.80004883 246.06738281 186.80004883 246.06738281 185.38752747 243.91290283 C183.77216646 241.68589925 182.55668351 240.96044956 180 240 C176.45786015 239.49992206 176.45786015 239.49992206 173 240 C171.15684329 241.9004467 171.15684329 241.9004467 170 244 C169.34 244 168.68 244 168 244 C168.33 227.17 168.66 210.34 169 193 C162.83277348 198.3373854 162.83277348 198.3373854 157 203.9375 C156.34 204.60523438 155.68 205.27296875 155 205.9609375 C154.34 206.63382813 153.68 207.30671875 153 208 C148.43006238 212.65919421 143.78930554 217.11916017 138.84375 221.37890625 C136.26929553 223.64246261 133.8952606 226.04702227 131.5 228.5 C128.49003881 231.55535564 125.464312 234.54089242 122.1875 237.3125 C118.2459214 240.66893704 114.63914065 244.32361807 111 248 C106.15608669 252.88315066 101.25389762 257.55790253 96 262 C94.83191827 263.0179097 93.66541347 264.03763022 92.5 265.05859375 C73.14047804 282 73.14047804 282 70 282 C69.67 266.82 69.34 251.64 69 236 C67.35 235.34 65.7 234.68 64 234 C61.98619998 232.44065415 60.0883984 230.87263679 58.1875 229.1875 C57.04045417 228.19240397 55.89194885 227.19898845 54.7421875 226.20703125 C54.13729492 225.68447754 53.53240234 225.16192383 52.90917969 224.62353516 C49.59767257 221.80748371 46.2005941 219.09794679 42.8125 216.375 C37.60800692 212.17861748 32.57487605 207.871305 27.66015625 203.3359375 C23.52664521 199.70621709 19.18284614 196.33850587 14.82397461 192.98413086 C13.18067645 191.70003281 11.58537258 190.3549651 10 189 C10 188.34 10 187.68 10 187 C11.93939453 186.92652344 11.93939453 186.92652344 13.91796875 186.8515625 C23.74759544 186.44183701 33.31486121 185.82038193 43 184 C40.63357331 181.56596112 38.32670082 179.24932431 35.625 177.1875 C33.40852418 175.34043681 31.77623638 173.62795593 29.9375 171.4375 C26.39727967 167.28529409 22.45694801 163.65257034 18.4128418 160.0065918 C15.61819783 157.48601004 12.88384056 154.93820883 10.25 152.25 C7.44334603 149.39645682 4.49070949 146.78071861 1.45703125 144.171875 C-2.52489335 140.65208155 -6.38565677 137.00076257 -10.25219727 133.35498047 C-10.83670654 132.80729004 -11.42121582 132.25959961 -12.0234375 131.6953125 C-12.54856934 131.20047363 -13.07370117 130.70563477 -13.61474609 130.19580078 C-16.38664443 127.80299887 -18.49667697 127.86639375 -22.06192017 127.84178162 C-23.66894051 127.82709839 -23.66894051 127.82709839 -25.3084259 127.81211853 C-26.48877914 127.80636307 -27.66913239 127.8006076 -28.88525391 127.79467773 C-30.74374718 127.77982834 -30.74374718 127.77982834 -32.63978577 127.76467896 C-36.04244628 127.7384556 -39.44508289 127.71660829 -42.84778261 127.69667697 C-46.40191474 127.67483371 -49.95600386 127.64743692 -53.51010132 127.62062073 C-60.24258659 127.57067135 -66.9750957 127.52574087 -73.70762765 127.48259836 C-82.80368009 127.42402156 -91.89967599 127.35772265 -100.99567795 127.29184818 C-115.3304139 127.18823838 -129.6651982 127.09497261 -144 127 C-144 146.47 -144 165.94 -144 186 C-129.81 186 -115.62 186 -101 186 C-101 206.46 -101 226.92 -101 248 C-106 246 -106 246 -108.8125 243.4375 C-111.73291226 240.91498452 -114.20468698 240.05398978 -118.046875 239.8046875 C-121.53377895 240.15337789 -123.42963409 241.72172113 -126 244 C-126.49785004 245.02557007 -126.99570007 246.05114014 -127.50863647 247.10778809 C-130 250 -130 250 -132.12584305 250.54963684 C-134.9703564 250.75593064 -137.76009778 250.76439541 -140.61181641 250.71289062 C-141.69183426 250.71697937 -142.77185211 250.72106812 -143.88459778 250.72528076 C-147.45760633 250.73130156 -151.02877317 250.69433575 -154.6015625 250.65625 C-157.07969709 250.650136 -159.55783854 250.64638286 -162.03598022 250.64489746 C-167.22965795 250.6356886 -172.42271592 250.60682495 -177.61621094 250.5625 C-184.28600707 250.50587532 -190.95516357 250.48407175 -197.62517738 250.4751358 C-202.74143388 250.46683793 -207.85759096 250.44721284 -212.97379684 250.42338562 C-215.43387426 250.41196234 -217.8939613 250.40245086 -220.3540535 250.39485168 C-223.78519903 250.38115997 -227.21595175 250.35391353 -230.64697266 250.32226562 C-231.6714299 250.32002991 -232.69588715 250.31779419 -233.75138855 250.31549072 C-234.68232834 250.30407043 -235.61326813 250.29265015 -236.57241821 250.28088379 C-237.38393152 250.27493446 -238.19544483 250.26898514 -239.03154945 250.26285553 C-241 250 -241 250 -243 248 C-242.86682737 243.2057853 -240.23523559 240.26099223 -237 237 C-235.81547964 235.95508504 -234.61916619 234.92345142 -233.4140625 233.90234375 C-228.5139164 229.64961903 -223.98674439 225.05935803 -219.4375 220.4375 C-216.31578786 217.26619751 -213.16939724 214.12357633 -210 211 C-209.09121094 210.04697998 -209.09121094 210.04697998 -208.1640625 209.07470703 C-205.08939737 206.06277214 -203.07615587 204.65148053 -198.6953125 204.625 C-197.17031998 204.72932943 -195.64665724 204.85492743 -194.125 205 C-187.56297981 205.30378489 -182.88211935 205.26439206 -177.63671875 200.8125 C-171.99666262 194.56670992 -171.29604706 188.71846586 -171.546875 180.3515625 C-172.37135978 174.25321816 -175.08002883 170.82151111 -179.4375 166.6875 C-182.19585694 164.87102104 -185.0214894 163.42156188 -188 162 C-189.85304908 160.14695092 -189.37254396 157.10650297 -189.53515625 154.61328125 C-189.57813339 153.95982224 -189.62111053 153.30636322 -189.66539001 152.63310242 C-189.75585871 151.2385397 -189.84396434 149.84382205 -189.92993164 148.44897461 C-190.0591881 146.36587459 -190.19790343 144.28357466 -190.33789062 142.20117188 C-190.60357686 138.13591776 -190.81057477 134.06942978 -191 130 C-191.03571106 129.33384674 -191.07142212 128.66769348 -191.10821533 127.98135376 C-191.20408072 126.06413447 -191.26480719 124.14525744 -191.32421875 122.2265625 C-191.36506592 121.12006348 -191.40591309 120.01356445 -191.44799805 118.87353516 C-190.87849646 115.22065575 -189.66948633 114.22862137 -186.75 112.0625 C-185.92886719 111.54816406 -185.10773438 111.03382812 -184.26171875 110.50390625 C-178.86444007 106.91504219 -177.64638372 100.9868499 -176 95 C-170.39698068 93.88996357 -164.7927862 92.78603335 -159.1875 91.6875 C-158.36144257 91.52560181 -157.53538513 91.36370361 -156.68429565 91.19689941 C-146.77149713 89.25911913 -136.8690654 87.40281683 -126.87524414 85.92700195 C-121.39833094 85.10595023 -116.04095401 83.96783304 -110.6640625 82.6484375 C-105.70318679 81.44095162 -101.11712611 80.36035924 -96 81 C-94.76626172 82.42853906 -93.53926411 83.86862475 -92.43359375 85.3984375 C-88.74348403 89.5209034 -83.34859767 90.80734319 -78.0625 91.5625 C-71.73689948 91.20755648 -65.89921494 87.89921494 -61.5 83.5 C-58.87136393 79.11893989 -57.73328142 75.62760295 -57.8125 70.5 C-57.81894531 69.5821875 -57.82539062 68.664375 -57.83203125 67.71875 C-57.99621012 65.06134313 -58.41265001 62.59373754 -59 60 C-58.34 60 -57.68 60 -57 60 C-56.76667969 59.43796875 -56.53335937 58.8759375 -56.29296875 58.296875 C-54.68062924 55.43265858 -52.6806438 53.52747979 -50.3125 51.25 C-45.97668828 47.00152837 -41.91825261 42.63241688 -38 38 C-36.95949673 36.76984835 -35.91786724 35.54064822 -34.875 34.3125 C-34.22144531 33.53326172 -34.22144531 33.53326172 -33.5546875 32.73828125 C-31.46132755 30.39771547 -29.22420912 28.21676177 -27 26 C-26.05582737 25.05167306 -25.11223834 24.10276476 -24.16918945 23.15332031 C-21.46562726 20.43208237 -18.75911962 17.71379624 -16.05151367 14.99658203 C-14.88591631 13.82591188 -13.72121155 12.65435235 -12.55737305 11.48193359 C-10.87000976 9.78248895 -9.17947916 8.08625256 -7.48828125 6.390625 C-6.96744461 5.86462708 -6.44660797 5.33862915 -5.9099884 4.79669189 C-2.22774175 1.11387087 -2.22774175 1.11387087 0 0 Z " fill="#FDFDFD" transform="translate(1221,1128)"/>
<path d="M0 0 C14.685 -0.061875 29.37 -0.12375 44.5 -0.1875 C49.10517578 -0.21481201 53.71035156 -0.24212402 58.45507812 -0.27026367 C64.15917969 -0.28381348 64.15917969 -0.28381348 66.84509277 -0.28633118 C68.68691189 -0.29088237 70.52872313 -0.30131533 72.3704834 -0.31672668 C98.5591704 -0.52455792 124.52656988 4.53856556 145 22 C146.24136719 22.95519531 146.24136719 22.95519531 147.5078125 23.9296875 C161.660954 35.6869994 170.58113914 55.02186077 173 73 C173.35147743 78.33544191 173.43915427 83.65558502 173.4375 89 C173.4385675 89.73133148 173.43963501 90.46266296 173.44073486 91.21615601 C173.41631224 102.80405864 172.42554056 113.20027238 168 124 C167.56558594 125.0828125 167.13117188 126.165625 166.68359375 127.28125 C159.23222202 143.75493794 146.58674821 156.25177843 131 165 C130.02933594 165.54785156 129.05867188 166.09570312 128.05859375 166.66015625 C122.45734932 169.63986587 116.78123638 171.89452061 110.75 173.8125 C110.1005542 174.01963623 109.4511084 174.22677246 108.78198242 174.44018555 C100.99533364 176.78656238 93.42818384 177.14718768 85.37109375 177.11352539 C84.42847183 177.11364593 83.48584991 177.11376646 82.5146637 177.11389065 C79.48891775 177.11314929 76.46323481 177.1055567 73.4375 177.09765625 C71.55924509 177.09618442 69.68098978 177.0951652 67.80273438 177.09460449 C60.86848329 177.08937951 53.93424102 177.07541825 47 177.0625 C31.49 177.041875 15.98 177.02125 0 177 C0 118.59 0 60.18 0 0 Z " fill="#030303" transform="translate(1611,1294)"/>
<path d="M0 0 C10.56 0 21.12 0 32 0 C39.3914064 8.29789964 39.3914064 8.29789964 40.79296875 12.4140625 C43.19946744 18.76994983 46.53898078 24.44315202 49.9375 30.3125 C51.13700017 32.45990578 52.33233461 34.6096439 53.5234375 36.76171875 C56.66183657 42.40685126 59.84907289 48.02230662 63.0625 53.625 C68.85198061 63.72679793 74.58378416 73.8605542 80.30615234 84.00048828 C82.09416386 87.16674794 83.88468088 90.33158046 85.67578125 93.49609375 C86.5730896 95.08188232 86.5730896 95.08188232 87.48852539 96.69970703 C88.64231955 98.73863642 89.79644139 100.77738043 90.95092773 102.81591797 C91.46727783 103.72873535 91.98362793 104.64155273 92.515625 105.58203125 C92.97227539 106.38874268 93.42892578 107.1954541 93.89941406 108.02661133 C94.6291404 109.33503591 95.33000367 110.66000734 96 112 C96.66 112 97.32 112 98 112 C98.36609375 111.22140625 98.7321875 110.4428125 99.109375 109.640625 C103.0160895 101.56674836 107.37772874 93.88821029 112.03442383 86.22485352 C121.75007537 70.21656592 130.94899238 53.90000538 140.1340332 37.58325195 C147.25532873 24.96068689 154.54346706 12.4275549 162 0 C172.89 0 183.78 0 195 0 C195 58.41 195 116.82 195 177 C183.45 177 171.9 177 160 177 C160 140.7 160 104.4 160 67 C157.52985748 69.47014252 156.3060544 70.97322682 154.72265625 73.9296875 C154.29782959 74.71424316 153.87300293 75.49879883 153.43530273 76.30712891 C152.98227783 77.15452637 152.52925293 78.00192383 152.0625 78.875 C151.07705657 80.69354137 150.09002508 82.51122292 149.1015625 84.328125 C148.59141602 85.26591797 148.08126953 86.20371094 147.55566406 87.16992188 C145.07252056 91.68727899 142.50705809 96.15640189 139.9375 100.625 C136.2074639 107.12277199 132.50798465 113.63492199 128.875 120.1875 C128.4723291 120.91275879 128.0696582 121.63801758 127.65478516 122.38525391 C125.5557211 126.17201615 123.47185805 129.96653801 121.40234375 133.76953125 C110.77512219 153.22487781 110.77512219 153.22487781 105 159 C102.32264758 159.27950382 99.80474346 159.41615691 97.125 159.4375 C96.40441406 159.47037109 95.68382813 159.50324219 94.94140625 159.53710938 C92.8203125 159.55859375 92.8203125 159.55859375 89 159 C86.053438 155.84006143 83.99293715 152.41615179 81.9765625 148.61328125 C81.43 147.59169922 80.8834375 146.57011719 80.3203125 145.51757812 C79.76085938 144.45990234 79.20140625 143.40222656 78.625 142.3125 C75.04151951 135.56835623 71.40444354 128.90021469 67.43408203 122.37524414 C65.08428076 118.48331078 62.86357799 114.51907471 60.625 110.5625 C55.63172368 101.7793221 50.5275048 93.06532132 45.375 84.375 C45.02157532 83.77833527 44.66815063 83.18167053 44.30401611 82.56692505 C40.27132583 75.70890396 40.27132583 75.70890396 36 69 C35.67 104.64 35.34 140.28 35 177 C23.45 177 11.9 177 0 177 C0 118.59 0 60.18 0 0 Z " fill="#030303" transform="translate(2394,1294)"/>
<path d="M0 0 C5.21434861 -0.12354475 10.4278469 -0.2143108 15.64331055 -0.2746582 C17.41755001 -0.29981206 19.19168576 -0.33393961 20.96557617 -0.37719727 C23.51507118 -0.43781463 26.06319751 -0.46619927 28.61328125 -0.48828125 C29.40712723 -0.51408768 30.20097321 -0.5398941 31.01887512 -0.56648254 C33.26293945 -0.56762695 33.26293945 -0.56762695 37 0 C38.88842773 2.23510742 38.88842773 2.23510742 40 5 C40.36706055 5.76135254 40.73412109 6.52270508 41.11230469 7.30712891 C41.63679199 8.50474854 41.63679199 8.50474854 42.171875 9.7265625 C42.58099121 10.65758789 42.99010742 11.58861328 43.41162109 12.54785156 C44.07411865 14.07104004 44.07411865 14.07104004 44.75 15.625 C45.2238916 16.70749023 45.6977832 17.78998047 46.18603516 18.90527344 C50.62744274 29.07941045 54.97799924 39.29232299 59.33642578 49.50219727 C64.73621761 62.14317829 70.30285869 74.69953802 75.953125 87.23046875 C81.79915856 100.19605706 87.50577224 113.22376955 93.15234375 126.27734375 C93.42139023 126.89931137 93.69043671 127.52127899 93.96763611 128.16209412 C95.06322757 130.69546986 96.15860469 133.22893657 97.25253296 135.76303101 C100.29299683 142.805229 103.35886319 149.83449272 106.4921875 156.8359375 C106.9139904 157.77933487 106.9139904 157.77933487 107.34431458 158.74179077 C108.68885667 161.74685742 110.03831295 164.74958371 111.39428711 167.74951172 C112.10597046 169.33530029 112.10597046 169.33530029 112.83203125 170.953125 C113.25202393 171.88286133 113.6720166 172.81259766 114.10473633 173.77050781 C115 176 115 176 115 178 C102.13 178 89.26 178 76 178 C73.69 173.05 71.38 168.1 69 163 C68.113125 161.288125 67.22625 159.57625 66.3125 157.8125 C63.50592817 152.2829959 60 145.2895875 60 139 C32.28 139.33 4.56 139.66 -24 140 C-27.63 149.24 -31.26 158.48 -35 168 C-36.65 171.3 -38.3 174.6 -40 178 C-52.21 178 -64.42 178 -77 178 C-76.23237645 174.16188224 -75.43762204 171.32446832 -73.9609375 167.7890625 C-73.54900146 166.79946533 -73.13706543 165.80986816 -72.71264648 164.7902832 C-72.27122314 163.74573975 -71.8297998 162.70119629 -71.375 161.625 C-70.92133057 160.54371826 -70.46766113 159.46243652 -70.00024414 158.34838867 C-67.07970821 151.43143874 -64.01332601 144.61653143 -60.78125 137.83984375 C-58.53752423 133.07448783 -56.49716176 128.221991 -54.4375 123.375 C-51.61742569 116.7399104 -48.71997205 110.16155596 -45.66015625 103.6328125 C-42.90846939 97.61147419 -40.30715206 91.52461873 -37.6809082 85.44775391 C-35.43607202 80.26487951 -33.1537119 75.11105058 -30.75 70 C-28.37612058 64.93216754 -26.28487326 59.7757436 -24.24243164 54.56860352 C-22.68351639 50.6236244 -21.00181135 46.77104493 -19.1875 42.9375 C-16.0113638 36.20276094 -13.23958879 29.31924637 -10.51049805 22.39233398 C-7.43157692 14.70382006 -3.7755116 7.36342432 0 0 Z " fill="#040404" transform="translate(1869,1293)"/>
<path d="M0 0 C12.54 0 25.08 0 38 0 C45.87408949 16.87304891 45.87408949 16.87304891 48.5 22.90234375 C48.92635742 23.87899742 48.92635742 23.87899742 49.36132812 24.87538147 C50.24267209 26.89531469 51.1214341 28.91635719 52 30.9375 C52.58315449 32.27546859 53.16648773 33.61335928 53.75 34.95117188 C54.91510848 37.62294252 56.07933381 40.29509532 57.24291992 42.9675293 C61.87023387 53.59162758 66.52179693 64.20521076 71.1875 74.8125 C71.6518042 75.86816162 72.1161084 76.92382324 72.59448242 78.01147461 C75.98114991 85.70381331 79.39292444 93.38474542 82.8125 101.0625 C89.61340958 116.34372065 96.33197335 131.66038422 103 147 C103.44200745 148.01643585 103.44200745 148.01643585 103.89294434 149.05340576 C105.62431121 153.03663567 107.3507436 157.02194652 109.0703125 161.01028442 C109.85978956 162.8397526 110.65251953 164.66781593 111.4453125 166.49584961 C111.91453125 167.58776611 112.38375 168.67968262 112.8671875 169.8046875 C113.28081543 170.76358887 113.69444336 171.72249023 114.12060547 172.71044922 C115 175 115 175 115 177 C102.13 177 89.26 177 76 177 C73.1079285 170.49283912 70.24680052 163.97990139 67.4375 157.4375 C67.05142578 156.54353516 66.66535156 155.64957031 66.26757812 154.72851562 C65.88923828 153.84744141 65.51089844 152.96636719 65.12109375 152.05859375 C64.7852124 151.27798584 64.44933105 150.49737793 64.10327148 149.69311523 C62.65599831 146.16028267 61.34051488 142.57470634 60 139 C32.61 139 5.22 139 -23 139 C-27.29 149.23 -31.58 159.46 -36 170 C-36.99 172.31 -37.98 174.62 -39 177 C-51.54 177 -64.08 177 -77 177 C-73.62585034 166.87755102 -73.62585034 166.87755102 -71.50390625 162.1640625 C-71.03380127 161.11355713 -70.56369629 160.06305176 -70.0793457 158.98071289 C-69.32850708 157.31963501 -69.32850708 157.31963501 -68.5625 155.625 C-67.75939112 153.83379026 -66.95628929 152.04257732 -66.15361023 150.25117493 C-65.32304453 148.39882565 -64.49070186 146.54728198 -63.65820312 144.69580078 C-61.02205636 138.82734618 -58.42002102 132.94371239 -55.8125 127.0625 C-53.08306875 120.90984107 -50.35246679 114.75830889 -47.5625 108.6328125 C-43.23363989 99.1239379 -39.14599301 89.55381402 -35.23583984 79.86474609 C-33.10388383 74.61003016 -30.88047598 69.42988443 -28.4375 64.3125 C-25.89199626 58.97101962 -23.52353146 53.58751396 -21.25 48.125 C-18.04097907 40.42127995 -14.73574353 32.76378043 -11.375 25.125 C-10.93188477 24.1158252 -10.48876953 23.10665039 -10.03222656 22.06689453 C-6.77044045 14.66941435 -3.38916671 7.34319454 0 0 Z " fill="#040405" transform="translate(2183,1294)"/>
<path d="M0 0 C1.23282715 0.00563965 2.4656543 0.0112793 3.73583984 0.01708984 C24.32593072 0.29082937 43.57955751 5.76018629 61.25 16.3125 C60.57187289 20.6910244 59.01812779 24.56687003 57.3125 28.625 C55.184367 33.796653 53.3696908 38.8260151 52.25 44.3125 C48.30195052 43.66658749 44.92070821 42.45284269 41.25 40.875 C39.25015359 40.02047379 37.25016008 39.16629174 35.25 38.3125 C34.44820312 37.96316406 33.64640625 37.61382813 32.8203125 37.25390625 C22.14274162 33.34312421 10.6181795 32.98723193 -0.625 32.875 C-1.75309082 32.8529248 -2.88118164 32.83084961 -4.04345703 32.80810547 C-12.02336117 32.82803471 -20.44465343 33.63891909 -26.75317383 39.02172852 C-29.88511783 42.36747048 -31.89698229 45.76307222 -32.75 50.3125 C-32.40882053 56.6811834 -30.7184353 61.18866192 -26.375 65.875 C-18.08516297 72.2572722 -6.41255917 74.32568357 3.5625 76.625 C51.97501875 88.31972199 51.97501875 88.31972199 64.62109375 107.37890625 C70.80575957 118.59286075 70.5984793 132.40233653 67.22265625 144.4296875 C62.59242292 158.15302966 53.88018586 167.36374698 41.25 174.3125 C27.54334192 180.87518598 13.15088717 183.8902838 -2 183.8125 C-3.29687744 183.80750488 -4.59375488 183.80250977 -5.92993164 183.79736328 C-30.91053656 183.35474243 -54.18170121 177.25961894 -73.75 161.3125 C-73.05007867 155.76696945 -70.31620012 151.31103153 -67.72070312 146.45898438 C-65.29809353 141.79668783 -63.85000719 137.45546555 -62.75 132.3125 C-59.38102629 133.55246949 -56.64876247 134.95636789 -53.75 137.0625 C-34.90370647 149.85551382 -11.76382394 154.21399651 10.65478516 150.96386719 C17.40664009 149.49245546 23.87721959 146.94179722 28.5625 141.75 C30.83480493 137.1212307 31.15839273 133.37699045 30.25 128.3125 C27.43652348 121.59645928 21.39692792 118.06907814 14.94165039 115.3347168 C7.20984559 112.43929795 -0.63307336 110.58261484 -8.6875 108.8125 C-29.14216059 104.30362162 -52.00965075 98.44657376 -64.75 80.3125 C-71.32372715 68.06532358 -72.56855646 55.40220181 -70.1015625 41.71484375 C-65.57006518 27.01652552 -56.27065189 16.85826419 -43.28125 9.171875 C-29.48691437 1.90848589 -15.40450194 -0.07411101 0 0 Z " fill="#050505" transform="translate(3087.75,1290.6875)"/>
<path d="M0 0 C4.41056424 -0.19922632 8.81868386 -0.34358566 13.23242188 -0.43945312 C14.73028216 -0.47944767 16.22783479 -0.53386764 17.72460938 -0.60351562 C30.1675952 -1.16759765 30.1675952 -1.16759765 34.72412109 1.73579407 C36.70425391 3.7243156 38.34984716 5.73656555 40 8 C41.63728305 9.43018624 43.30051045 10.83182166 45 12.1875 C45.93070313 12.93644531 46.86140625 13.68539063 47.8203125 14.45703125 C48.3246582 14.86002441 48.82900391 15.26301758 49.34863281 15.67822266 C52.53581958 18.22929143 55.70492283 20.80272387 58.875 23.375 C59.55925049 23.93002197 60.24350098 24.48504395 60.94848633 25.05688477 C67.95133677 30.75048143 74.8324553 36.58239038 81.69238281 42.44677734 C82.84011066 43.42752153 83.9886302 44.40733997 85.13793945 45.38623047 C89.31936132 48.94766312 89.31936132 48.94766312 91.34541321 50.71366882 C92.99592108 52.07057316 92.99592108 52.07057316 95.03190613 53.09260559 C97.49498453 54.51998293 99.17557986 55.80128845 101 58 C102.12304309 62.50107322 101.93251855 66.8776482 101.78125 71.4921875 C101.76993042 72.79326447 101.75861084 74.09434143 101.74694824 75.43484497 C101.71653645 78.87855061 101.63808365 82.31951629 101.54931641 85.762146 C101.46717868 89.28115776 101.43087821 92.80061655 101.390625 96.3203125 C101.30506704 103.21466072 101.16870259 110.10719852 101 117 C99 117 99 117 97 115.0625 C96.56042969 114.60488281 96.12085938 114.14726563 95.66796875 113.67578125 C91.94983639 109.94023375 87.929847 106.50960324 84 103 C82.18653452 101.37607752 80.37400105 99.75111352 78.5625 98.125 C77.75941406 97.40570312 76.95632813 96.68640625 76.12890625 95.9453125 C75.42636719 95.30335937 74.72382812 94.66140625 74 94 C73.39027344 93.50242187 72.78054688 93.00484375 72.15234375 92.4921875 C71.77207031 91.99976563 71.39179687 91.50734375 71 91 C71.29296875 89.17578125 71.29296875 89.17578125 72 87 C72.6388539 79.57463252 72.7219062 73.96451309 68 68 C61.24543076 62.76176263 55.33189813 62.25023477 47 63 C42.26387157 64.33465777 39.6264374 66.21293762 36.5625 70.0625 C33.70551656 75.43362887 33.49914342 80.02614698 34 86 C35.7827705 91.62980157 38.50905014 96.96806857 43.78515625 100.0390625 C48.66664334 102.11587808 53.73742504 102.79924708 59 102 C59.99 101.34 60.98 100.68 62 100 C62.99 100 63.98 100 65 100 C65 100.66 65 101.32 65 102 C65.59441895 102.26627197 66.18883789 102.53254395 66.80126953 102.80688477 C69.05075626 104.02754229 70.42911274 105.23941494 72.1796875 107.08984375 C73.06901978 108.01156372 73.06901978 108.01156372 73.97631836 108.9519043 C74.6028833 109.60715088 75.22944824 110.26239746 75.875 110.9375 C81.47142754 116.70307511 87.227826 121.84312049 93.78271484 126.49780273 C95.46484375 127.73046875 95.46484375 127.73046875 98 130 C98 131.32 98 132.64 98 134 C95.77384126 136.0759456 93.61157878 137.87183568 91.1875 139.6875 C89.79642748 140.76244194 88.40580513 141.83796671 87.015625 142.9140625 C86.32791016 143.44032227 85.64019531 143.96658203 84.93164062 144.50878906 C82.38792226 146.47251907 79.91091105 148.51119802 77.4375 150.5625 C72.61653683 154.52929853 67.7126248 158.38289387 62.76928711 162.19555664 C60.29047924 164.12280755 58.00997317 165.98894966 55.90234375 168.32421875 C54 170 54 170 51.62109375 170.51953125 C47.94513524 169.79091354 45.96641717 168.0421264 43.0625 165.6875 C42.4953125 165.23455566 41.928125 164.78161133 41.34375 164.31494141 C40.14734982 163.3588073 38.95485899 162.39776313 37.76611328 161.43212891 C35.0340398 159.21670963 32.26656679 157.0470675 29.5 154.875 C28.94610596 154.43768555 28.39221191 154.00037109 27.8215332 153.54980469 C21.25837114 148.38161929 14.59445537 143.34481942 7.93164062 138.30615234 C7.06216797 137.64695801 6.19269531 136.98776367 5.296875 136.30859375 C4.51666992 135.71876709 3.73646484 135.12894043 2.93261719 134.52124023 C1 133 1 133 -1 131 C-1.23047829 128.70802879 -1.23047829 128.70802879 -1.20254517 125.78622437 C-1.19688034 124.68122086 -1.19121552 123.57621735 -1.18537903 122.43772888 C-1.16883774 121.21997269 -1.15229645 120.00221649 -1.13525391 118.74755859 C-1.12579239 117.4695488 -1.11633087 116.191539 -1.10658264 114.87480164 C-1.08036662 111.36457582 -1.04170158 107.85458303 -1.00085878 104.34450102 C-0.96029807 100.67834782 -0.93110624 97.01210487 -0.90072632 93.34585571 C-0.84143985 86.40075892 -0.77187777 79.45580429 -0.69865549 72.51084197 C-0.61580392 64.6053323 -0.5443594 56.69973256 -0.47388959 48.79410434 C-0.32865037 32.52926843 -0.16903225 16.26460641 0 0 Z " fill="#FCFCFC" transform="translate(1179,1314)"/>
<path d="M0 0 C50.82 0 101.64 0 154 0 C154 10.56 154 21.12 154 32 C134.86 32 115.72 32 96 32 C96 80.18 96 128.36 96 178 C83.79 178 71.58 178 59 178 C58.67 130.15 58.34 82.3 58 33 C38.86 32.67 19.72 32.34 0 32 C0 21.44 0 10.88 0 0 Z " fill="#030303" transform="translate(1965,1293)"/>
<path d="M0 0 C1.34592476 -0.01713043 1.34592476 -0.01713043 2.71903992 -0.03460693 C3.70609421 -0.03684265 4.6931485 -0.03907837 5.71011353 -0.04138184 C6.74761246 -0.05131165 7.78511139 -0.06124146 8.85404968 -0.07147217 C12.29779682 -0.10076349 15.74135977 -0.11432667 19.18521118 -0.12536621 C21.57173673 -0.13686464 23.95826221 -0.14838016 26.3447876 -0.15991211 C31.35345321 -0.1809454 36.36205447 -0.19262216 41.37075806 -0.19958496 C47.79626589 -0.21056126 54.22092749 -0.25862365 60.64616966 -0.31552887 C65.57719424 -0.35273218 70.50801393 -0.36319009 75.43916702 -0.36625671 C77.80833186 -0.37232153 80.1774926 -0.38841826 82.54652023 -0.41462708 C85.85822118 -0.44865091 89.16784113 -0.44501459 92.47964478 -0.43200684 C93.4626506 -0.4504364 94.44565643 -0.46886597 95.45845032 -0.487854 C98.02205136 -0.45622985 100.24736212 -0.38157716 102.72427368 0.28088379 C105.25982666 3.22045898 105.25982666 3.22045898 106.72427368 6.28088379 C109.98664495 9.55085966 112.73333036 11.16128718 117.34927368 11.71838379 C122.24058934 11.08432435 125.19436262 9.82556037 128.91177368 6.65588379 C131.72427368 4.28088379 131.72427368 4.28088379 133.72427368 4.28088379 C133.88677147 13.4170287 134.01099621 22.55267304 134.08695889 31.68994999 C134.1234258 35.93326577 134.1728521 40.17558989 134.25234985 44.41833496 C134.32864981 48.51626195 134.37031316 52.61323789 134.38841438 56.7118206 C134.40130613 58.27198695 134.4264825 59.83210369 134.46438408 61.39186287 C134.74886562 73.58895908 134.74886562 73.58895908 132.22698975 77.75337219 C130.4816776 79.53098898 128.79453526 80.90595602 126.72427368 82.28088379 C125.20833618 83.48937988 125.20833618 83.48937988 123.66177368 84.72229004 C122.69239868 85.42225098 121.72302368 86.12221191 120.72427368 86.84338379 C117.20894255 89.39440962 113.95950511 91.94109187 110.84927368 94.96838379 C109.81802368 95.73150879 108.78677368 96.49463379 107.72427368 97.28088379 C104.77265764 96.78894778 102.87333394 96.42994405 100.72427368 94.28088379 C93.9184275 93.47161163 88.3257741 94.21046015 82.72427368 98.28088379 C79.30003035 101.54328478 76.87224978 104.71306328 76.59146118 109.58557129 C76.59994859 115.99009361 76.59994859 115.99009361 77.72427368 122.28088379 C76.99982056 122.53740723 76.27536743 122.79393066 75.52896118 123.05822754 C67.04650773 126.75601017 60.92252161 133.84497947 55.72427368 141.28088379 C51.94691667 139.46775242 48.35611319 137.36590717 44.72427368 135.28088379 C44.98966415 130.42852621 45.25624589 125.5762359 45.52383423 120.72399902 C45.61431447 119.08046143 45.70449408 117.43690725 45.79434204 115.79333496 C45.8376062 115.00225342 45.88087036 114.21117187 45.92544556 113.39611816 C45.96849319 112.60653717 46.01154083 111.81695618 46.05589294 111.00344849 C46.14471599 109.41484774 46.23707336 107.82644066 46.33296204 106.23825073 C46.56068446 102.45442338 46.74980257 98.680866 46.82705688 94.89074707 C46.84953995 94.20646133 46.87202301 93.5221756 46.89518738 92.81715393 C46.95455948 90.97422057 46.99019789 89.13056549 47.02407837 87.2869873 C47.72427368 84.28088379 47.72427368 84.28088379 50.24038696 81.96740723 C52.13740388 80.82330099 54.07556829 79.74529748 56.04458618 78.73010254 C59.21324284 77.01644128 60.71948023 75.60756256 62.20474243 72.35900879 C63.96519504 65.31719835 63.64668265 58.26368736 59.92739868 51.96447754 C56.78828541 47.57175735 53.8562327 44.92574245 48.72427368 43.28088379 C45.57345488 43.00294978 45.57345488 43.00294978 42.28677368 43.09338379 C40.64901978 43.10305176 40.64901978 43.10305176 38.97817993 43.11291504 C35.71291865 43.18522762 35.71291865 43.18522762 32.56411743 44.01916504 C29.72427368 44.28088379 29.72427368 44.28088379 27.59927368 42.80432129 C26.67114868 41.74084473 26.67114868 41.74084473 25.72427368 40.65588379 C23.33000057 38.02218337 21.02834587 35.60152522 18.22427368 33.40588379 C17.39927368 32.70463379 16.57427368 32.00338379 15.72427368 31.28088379 C15.72427368 30.62088379 15.72427368 29.96088379 15.72427368 29.28088379 C15.18415649 29.06689941 14.64403931 28.85291504 14.08755493 28.63244629 C10.87420375 26.79472809 8.47388543 24.28508981 5.91177368 21.65588379 C5.38494995 21.11826416 4.85812622 20.58064453 4.31533813 20.0267334 C3.26478491 18.94877584 2.21742927 17.86769158 1.17349243 16.7833252 C-0.09001949 15.47341071 -1.36908466 14.17853402 -2.65072632 12.88635254 C-3.60978882 11.87508301 -3.60978882 11.87508301 -4.58822632 10.84338379 C-5.14123413 10.26717285 -5.69424194 9.69096191 -6.26400757 9.09729004 C-7.27572632 7.28088379 -7.27572632 7.28088379 -7.06869507 4.68322754 C-5.6989134 0.53339638 -4.08594494 0.03108455 0 0 Z " fill="#FCFCFC" transform="translate(986.2757263183594,1388.7191162109375)"/>
<path d="M0 0 C66.07221007 0 66.07221007 0 82.16015625 15.03515625 C95.31717551 29.08607066 98.65822603 45.862019 98.24609375 64.47265625 C98.01749402 69.99658102 97.08052144 74.8659376 95 80 C94.60941406 80.97066406 94.21882813 81.94132812 93.81640625 82.94140625 C87.20366932 97.60931848 76.70108658 106.21470616 61.9375 111.8125 C42.98955852 118.64437155 17.68311911 115 0 115 C0 77.05 0 39.1 0 0 Z " fill="#FDFDFD" transform="translate(1649,1325)"/>
<path d="M0 0 C12.54 0 25.08 0 38 0 C38 48.18 38 96.36 38 146 C68.03 146 98.06 146 129 146 C129 156.56 129 167.12 129 178 C86.43 178 43.86 178 0 178 C0 119.26 0 60.52 0 0 Z " fill="#050505" transform="translate(2874,1294)"/>
<path d="M0 0 C3.64821844 1.5502822 6.07761113 3.78203043 8.9375 6.5 C13.36652246 10.62811541 17.97317265 14.38688454 22.81030273 18.03710938 C27.28993166 21.42646171 31.65434169 24.94088149 36 28.5 C40.77943482 32.40941547 45.58947397 36.25633164 50.5 40 C60.88435019 47.932668 70.98370041 56.22205872 80.9375 64.6875 C81.5348999 65.19265137 82.1322998 65.69780273 82.74780273 66.21826172 C87.8887683 70.6256706 87.8887683 70.6256706 88.17578125 74.171875 C88.22089844 75.02265625 88.26601562 75.8734375 88.3125 76.75 C88.73029027 81.49637142 90.03444775 84.20038618 93 88 C93.33 88.99 93.66 89.98 94 91 C95.79932579 92.06716704 95.79932579 92.06716704 98 93 C100.60514832 94.19697571 100.60514832 94.19697571 103 96 C103.60127258 98.63859558 103.60127258 98.63859558 103.56762695 101.84838867 C103.5672493 103.0494072 103.56687164 104.25042572 103.56648254 105.48783875 C103.54067612 106.78478165 103.51486969 108.08172455 103.48828125 109.41796875 C103.47895396 110.75888248 103.47183744 112.09981326 103.46684265 113.44075012 C103.44776531 116.96755138 103.39866102 120.49332051 103.34332275 124.01971436 C103.29214444 127.61912065 103.26933182 131.21869399 103.24414062 134.81835938 C103.19054093 141.87932813 103.10522104 148.93959663 103 156 C102.34 156 101.68 156 101 156 C101 156.66 101 157.32 101 158 C96.48605768 156.56591544 93.92066438 154.30527252 90.58300781 150.98706055 C90.06694473 150.47786072 89.55088165 149.96866089 89.0191803 149.44403076 C87.32276206 147.7658507 85.63759735 146.07688321 83.953125 144.38671875 C82.77475912 143.21291533 81.59602226 142.03948423 80.41693115 140.8664093 C77.95078909 138.40919193 75.49039573 135.94638814 73.03369141 133.47973633 C69.88579172 130.32033421 66.7222964 127.17708651 63.55409622 124.03805828 C61.11754325 121.61985246 58.69036827 119.19240302 56.26583099 116.76215553 C55.10310446 115.59927568 53.93727012 114.43949459 52.76828766 113.28290367 C51.13555831 111.66505793 49.51610579 110.03497398 47.89941406 108.40112305 C46.97517639 107.47671921 46.05093872 106.55231537 45.09869385 105.59989929 C41.38954824 101.0049437 41.9741554 96.87366019 42.25 91.1875 C42.29735004 84.72760133 41.40369834 80.76367368 37 76 C31.71687604 71.09424203 27.2369413 70.53944514 20.21875 70.58203125 C14.9909557 71.26088318 11.02229611 73.67225597 7 77 C6.5563913 77.68761414 6.11278259 78.37522827 5.6557312 79.0836792 C4 81 4 81 1.87796021 81.45489502 C-4.29608681 81.22444196 -10.15104016 80.43912967 -16.1953125 79.171875 C-17.13864441 78.98263962 -18.08197632 78.79340424 -19.05389404 78.59843445 C-21.05316638 78.19661749 -23.05161199 77.79066746 -25.04925537 77.38082886 C-30.20080936 76.3242558 -35.35837757 75.29788882 -40.515625 74.26953125 C-42.02012711 73.968442 -42.02012711 73.968442 -43.55502319 73.66127014 C-54.32881073 71.51538128 -65.14222168 69.66952935 -76 68 C-76.69362022 64.96702969 -77.14274407 62.11647123 -77 59 C-74.76171875 55.93359375 -74.76171875 55.93359375 -71.6875 53.4375 C-70.68074219 52.59058594 -69.67398437 51.74367188 -68.63671875 50.87109375 C-66 49 -66 49 -64 49 C-64 48.34 -64 47.68 -64 47 C-63.34 47 -62.68 47 -62 47 C-61.731875 46.443125 -61.46375 45.88625 -61.1875 45.3125 C-59.89877353 42.80287477 -58.47073522 40.40665764 -57 38 C-53.95172596 39.10846329 -51.57863641 40.28652724 -48.875 42.125 C-44.12132497 44.85319611 -39.31897838 44.99823964 -34 44 C-28.95845461 41.65333473 -25.07740727 38.6527467 -22 34 C-20.6447719 29.9343157 -21.12655625 26.25600268 -21.35546875 22.0078125 C-20.74742365 16.8628155 -17.78780479 14.64556226 -13.90625 11.46484375 C-12.77550819 10.61613151 -11.63998894 9.77375039 -10.5 8.9375 C-6.75789649 6.16698573 -3.20359708 3.39989592 0 0 Z " fill="#FCFCFC" transform="translate(1122,1476)"/>
<path d="M0 0 C12.54 0 25.08 0 38 0 C38 48.18 38 96.36 38 146 C67.7 146 97.4 146 128 146 C128 156.56 128 167.12 128 178 C85.76 178 43.52 178 0 178 C0 119.26 0 60.52 0 0 Z " fill="#040505" transform="translate(2720,1294)"/>
<path d="M0 0 C4.82380802 -0.0246519 9.64757967 -0.04283693 14.47143555 -0.05493164 C16.11369464 -0.05997174 17.75594923 -0.06680378 19.39819336 -0.07543945 C21.75375479 -0.08751926 24.10925709 -0.09323139 26.46484375 -0.09765625 C27.20339096 -0.10281754 27.94193817 -0.10797882 28.7028656 -0.11329651 C30.46898088 -0.1134925 32.23497146 -0.06194719 34 0 C35 1 35 1 35.11352539 3.20904636 C35.10828857 4.19327044 35.10305176 5.17749453 35.09765625 6.19154358 C35.09282982 7.88012985 35.09282982 7.88012985 35.08790588 9.60282898 C35.07952194 10.84901505 35.071138 12.09520111 35.0625 13.37915039 C35.05550447 15.38096989 35.04852457 17.3827895 35.04213047 19.38461101 C35.03473053 21.54396728 35.02529913 23.70330941 35.01583862 25.86265755 C34.99792088 30.36381463 34.99591468 34.86488639 34.99829102 39.36607361 C34.99866017 40.1253423 34.99902933 40.88461099 34.99940968 41.66688782 C35.00072774 44.00644099 35.00228534 46.3459939 35.00390625 48.68554688 C35.0106142 58.38165509 35.00586714 68.07722725 34.94873047 77.77319336 C34.90720554 84.83852548 34.8975472 91.90310088 34.92484093 98.96851343 C34.93806947 102.70734779 34.93528931 106.44461472 34.89379883 110.18327522 C34.84782911 114.36156427 34.87230917 118.53665348 34.90234375 122.71508789 C34.87776596 123.94710434 34.85318817 125.17912079 34.8278656 126.44847107 C34.92002723 132.92586612 34.92002723 132.92586612 37.92889404 138.48075676 C40.19488108 140.52385401 42.48606716 142.27558473 45 144 C46.40831618 145.09689446 47.81274561 146.1988229 49.2109375 147.30859375 C50.59660519 148.35468681 51.98466508 149.39761806 53.375 150.4375 C59.00337341 154.6931292 64.53039839 159.0291438 69.96484375 163.53125 C74.09741064 166.89261715 78.29573262 170.16649944 82.5 173.4375 C83.29075928 174.05359131 84.08151855 174.66968262 84.89624023 175.30444336 C87.88877896 177.62716031 90.84639163 179.89759442 94 182 C94.32965382 184.50651901 94.46802628 186.76193514 94.46875 189.2734375 C94.48017029 190.35366684 94.48017029 190.35366684 94.49182129 191.45571899 C94.50263339 192.9805352 94.50547085 194.50542553 94.50097656 196.03027344 C94.50000625 198.35998873 94.54156168 200.68638758 94.5859375 203.015625 C94.59114616 204.49738897 94.59383267 205.97916438 94.59375 207.4609375 C94.61014526 208.15585297 94.62654053 208.85076843 94.64343262 209.56674194 C94.61523438 211.54833984 94.61523438 211.54833984 94 215 C91.52539062 217.34619141 91.52539062 217.34619141 89 219 C88.67 219.66 88.34 220.32 88 221 C82.81516993 220.55776449 80.35497693 219.05766204 76.5 215.625 C75.45094507 214.71025601 74.40008977 213.79757357 73.34765625 212.88671875 C72.80254395 212.41153809 72.25743164 211.93635742 71.69580078 211.44677734 C68.84889238 209.0179292 65.89297866 206.73193269 62.9375 204.4375 C56.88383061 199.71357178 50.92503405 194.88462628 45 190 C38.68001748 184.81684361 32.34511209 179.65233803 26 174.5 C16.3773745 166.68402074 16.3773745 166.68402074 11.9375 163.0625 C11.14214844 162.41410156 10.34679688 161.76570313 9.52734375 161.09765625 C8.69332031 160.40542969 7.85929687 159.71320313 7 159 C6.4224594 158.67012022 5.8449188 158.34024044 5.24987698 158.0003643 C1.83454649 155.77437341 0.22687157 154.06673758 -0.63581657 150.01042557 C-0.86397625 146.08848783 -0.8665105 142.19866004 -0.79467773 138.27392578 C-0.79270188 136.76567172 -0.79381416 135.25741092 -0.79777527 133.74916077 C-0.79978064 129.66434254 -0.75867938 125.58096834 -0.70975757 121.49648523 C-0.66594523 117.22444675 -0.66188231 112.95237374 -0.65357971 108.68014526 C-0.63183826 100.59456106 -0.57441643 92.50964079 -0.50413328 84.42434871 C-0.4258429 75.21770726 -0.3873916 66.0110338 -0.35226524 56.80414224 C-0.27913213 37.86905199 -0.15603813 18.93457941 0 0 Z " fill="#FDFDFD" transform="translate(1131,1314)"/>
<path d="M0 0 C0.6489624 -0.00671722 1.2979248 -0.01343445 1.96655273 -0.02035522 C4.11653248 -0.03938735 6.26620097 -0.0432619 8.41625977 -0.04541016 C9.90837229 -0.0518343 11.40048354 -0.05856237 12.89259338 -0.06558228 C16.02233807 -0.07756794 19.15197226 -0.08126177 22.28173828 -0.08007812 C26.29486734 -0.07987482 30.30728916 -0.10718262 34.32025051 -0.14162254 C37.40260582 -0.16384533 40.48478965 -0.16791711 43.56721687 -0.16685867 C45.04682924 -0.16922141 46.52644586 -0.1780827 48.00597954 -0.19352341 C50.0748046 -0.21309265 52.14208831 -0.20738351 54.2109375 -0.1953125 C55.38849106 -0.19816254 56.56604462 -0.20101257 57.77928162 -0.20394897 C60.67016602 0.29052734 60.67016602 0.29052734 62.5738678 2.32089233 C63.11653542 3.29586166 63.11653542 3.29586166 63.67016602 4.29052734 C58.25481966 16.01950026 45.2880658 26.4468567 35.51000977 34.65380859 C32.64763368 37.20016864 30.09559812 40.04252815 27.52954102 42.88427734 C25.67016602 44.29052734 25.67016602 44.29052734 23.56079102 44.07177734 C21.67016602 43.29052734 21.67016602 43.29052734 19.67016602 42.29052734 C17.56962886 42.14151243 15.46328777 42.06914281 13.35766602 42.04052734 C12.2271582 42.01474609 11.09665039 41.98896484 9.93188477 41.96240234 C6.37032979 42.32069051 4.60069777 43.31955023 1.67016602 45.29052734 C1.01016602 45.29052734 0.35016602 45.29052734 -0.32983398 45.29052734 C-0.70108398 46.06396484 -0.70108398 46.06396484 -1.07983398 46.85302734 C-2.32983398 49.29052734 -2.32983398 49.29052734 -4.45483398 52.35302734 C-7.18403674 57.17290239 -7.1517078 61.90762404 -6.32983398 67.29052734 C-4.12225871 74.91165406 -0.22413475 78.71821522 6.56079102 82.62255859 C9.30712471 84.79419653 9.19097577 85.85608784 9.67016602 89.29052734 C9.88345386 91.8676824 10.06348701 94.43229281 10.20532227 97.01318359 C10.26978798 98.12517372 10.26978798 98.12517372 10.33555603 99.2596283 C10.42548227 100.82703909 10.51362575 102.39455305 10.60009766 103.9621582 C10.73090634 106.32129168 10.86905034 108.67991129 11.00805664 111.03857422 C11.22408187 114.77536937 11.41129041 118.51262955 11.57632446 122.25201416 C11.66400238 124.15663503 11.7712068 126.06032901 11.87988281 127.96386719 C11.93849487 129.56222412 11.93849487 129.56222412 11.99829102 131.19287109 C12.03986328 132.10415771 12.08143555 133.01544434 12.12426758 133.9543457 C11.67016602 136.29052734 11.67016602 136.29052734 9.64501953 138.28295898 C7.35766602 139.79052734 7.35766602 139.79052734 4.93188477 141.00927734 C2.35820051 142.46725392 1.19506621 143.77277936 -0.32983398 146.29052734 C-0.57733398 147.48677734 -0.82483398 148.68302734 -1.07983398 149.91552734 C-1.49233398 151.02927734 -1.90483398 152.14302734 -2.32983398 153.29052734 C-8.60540145 155.71437714 -15.46948808 156.39685619 -22.07983398 157.47802734 C-30.64084699 158.90384927 -39.16826467 160.42397711 -47.66967773 162.17333984 C-48.8391243 162.41311302 -48.8391243 162.41311302 -50.03219604 162.6577301 C-53.8496602 163.44290919 -57.66394106 164.24084861 -61.4753418 165.05493164 C-77.13869229 168.34229464 -77.13869229 168.34229464 -83.32983398 167.29052734 C-83.98983398 166.63052734 -84.64983398 165.97052734 -85.32983398 165.29052734 C-85.32983398 164.30052734 -85.32983398 163.31052734 -85.32983398 162.29052734 C-84.12327148 161.88833984 -84.12327148 161.88833984 -82.89233398 161.47802734 C-81.62389648 160.89021484 -81.62389648 160.89021484 -80.32983398 160.29052734 C-79.99983398 159.30052734 -79.66983398 158.31052734 -79.32983398 157.29052734 C-77.46552033 155.72355239 -75.60772159 154.28203857 -73.64233398 152.85302734 C-68.65781745 149.13583143 -63.88571418 145.25789477 -59.20483398 141.16552734 C-54.26952962 136.86975787 -49.21615383 132.89434913 -43.87670898 129.10302734 C-41.30385114 127.27203649 -38.77622318 125.39564966 -36.26733398 123.47802734 C-35.55448242 122.93533203 -34.84163086 122.39263672 -34.10717773 121.83349609 C-31.85687672 119.87993807 -30.4461069 118.21775625 -30.06812096 115.20347309 C-30.05982482 113.99085442 -30.05982482 113.99085442 -30.05136108 112.7537384 C-30.0401976 111.82405746 -30.02903412 110.89437653 -30.01753235 109.93652344 C-30.01537216 108.91872803 -30.01321198 107.90093262 -30.01098633 106.85229492 C-29.99591789 105.24229866 -29.99591789 105.24229866 -29.98054504 103.59977722 C-29.94960432 100.04487656 -29.93264753 96.49005158 -29.91577148 92.93505859 C-29.89706861 90.47311243 -29.87749587 88.01117272 -29.85708618 85.54924011 C-29.80566601 79.06376959 -29.76609317 72.57827827 -29.72894287 66.0927124 C-29.68896516 59.47695731 -29.63784443 52.86128951 -29.58764648 46.24560547 C-29.49077016 33.26064176 -29.40602463 20.27562805 -29.32983398 7.29052734 C-28.71269531 7.4491626 -28.09555664 7.60779785 -27.4597168 7.77124023 C-22.78928647 8.90993869 -18.35601464 9.41234798 -14.03686523 7.02099609 C-4.6991193 0.03044312 -4.6991193 0.03044312 0 0 Z " fill="#FCFCFC" transform="translate(1419.329833984375,1389.70947265625)"/>
<path d="M0 0 C3.73665204 0.52876773 5.81789661 1.29204494 8.58984375 3.84765625 C9.27675293 4.47945801 9.96366211 5.11125977 10.67138672 5.76220703 C14.84123665 9.76942494 18.96505005 13.81750859 23.0456543 17.9152832 C24.5599258 19.43491668 26.0794743 20.94912517 27.59960938 22.46289062 C32.36220854 27.22218365 37.01648291 32.02973054 41.3972168 37.14770508 C44.77972969 41.05678738 48.37654701 44.77414304 51.92578125 48.53125 C53.08676002 49.76655191 54.24115511 51.00808159 55.38818359 52.25634766 C56.41711391 53.36943767 57.46542073 54.46512513 58.53759766 55.53662109 C61.12195398 58.26865492 61.979406 59.80708885 62.3828125 63.5859375 C62.29773437 64.83632812 62.21265625 66.08671875 62.125 67.375 C61.80496072 76.80915905 61.80496072 76.80915905 66.58203125 84.703125 C69.13427831 86.99403086 71.51503428 88.76978562 74.625 90.24609375 C77.996021 92.7355484 77.99633719 94.64273632 78.625 98.75 C78.73634277 99.45793701 78.84768555 100.16587402 78.96240234 100.89526367 C80.35502221 110.37071137 81.15102535 119.94741822 81.99853516 129.48535156 C82.17328369 131.43586426 82.17328369 131.43586426 82.3515625 133.42578125 C82.45291504 134.59536377 82.55426758 135.76494629 82.65869141 136.9699707 C82.91504333 139.8662928 82.91504333 139.8662928 83.53442383 142.09936523 C84.10834059 144.44228186 84.11235713 146.57343053 84.09765625 148.984375 C84.09282227 150.38623047 84.09282227 150.38623047 84.08789062 151.81640625 C84.07532227 153.26853516 84.07532227 153.26853516 84.0625 154.75 C84.05798828 155.73355469 84.05347656 156.71710938 84.04882812 157.73046875 C84.03706483 160.15370791 84.02062684 162.57682273 84 165 C77.9251993 164.70185027 75.01781613 161.92955381 70.75 158 C70.09032227 157.41057617 69.43064453 156.82115234 68.75097656 156.21386719 C66.82318512 154.48741658 64.90987187 152.74622775 63 151 C61.25069087 149.4159034 59.50079743 147.83245152 57.75 146.25 C56.96753906 145.53972656 56.18507813 144.82945312 55.37890625 144.09765625 C52.8702286 141.88557103 50.29364128 139.78366256 47.6875 137.6875 C42.23975011 133.28145866 37.12914511 128.5717927 32.01171875 123.79296875 C29.59346824 121.5376955 27.13145939 119.34489735 24.625 117.1875 C23.71621094 116.37732422 23.71621094 116.37732422 22.7890625 115.55078125 C20.99614903 113.95818603 20.99614903 113.95818603 18.9609375 112.48046875 C15.69281936 109.8047784 14.13026459 108.22510747 13.671875 103.9140625 C13.7239234 101.63954722 13.8111451 99.36556318 13.93359375 97.09375 C14.05083431 91.63171908 12.31068706 88.52913491 8.75 84.375 C6.05095709 81.81496333 6.05095709 81.81496333 2.37304688 80.37133789 C-0.46788583 78.33182638 -0.95279233 77.24627178 -1.62182617 73.756073 C-1.83019499 69.38224846 -1.81378496 65.05910822 -1.71875 60.68359375 C-1.70822316 59.06366074 -1.70065792 57.44370602 -1.69592285 55.82374573 C-1.67490312 51.56501447 -1.61100724 47.3079352 -1.53894043 43.04980469 C-1.48713475 39.57443929 -1.46511972 36.09919052 -1.44481659 32.62351894 C-1.40248155 25.44074129 -1.34071442 18.25791295 -1.22460938 11.07592773 C-1.20571655 9.80305405 -1.18682373 8.53018036 -1.1673584 7.21873474 C-1.03211672 4.61768751 -0.77053563 2.46995768 0 0 Z " fill="#FCFCFC" transform="translate(1237,1128)"/>
<path d="M0 0 C12.21 0 24.42 0 37 0 C37 58.41 37 116.82 37 177 C24.79 177 12.58 177 0 177 C0 118.59 0 60.18 0 0 Z " fill="#030304" transform="translate(2637,1294)"/>
<path d="M0 0 C0 23.43 0 46.86 0 71 C-5 69 -5 69 -7.44140625 67.40234375 C-12.00957372 64.89856952 -16.93772644 65.34923412 -22 66 C-24.44074511 67.07803465 -25.93474014 68.2608338 -28 70 C-28.66 70 -29.32 70 -30 70 C-30.4021875 70.804375 -30.4021875 70.804375 -30.8125 71.625 C-32 74 -32 74 -33.609375 76.671875 C-35.31022472 80.74244791 -34.91433296 83.26906651 -34.4375 87.625 C-34.17317212 92.31695496 -34.34447164 95.71317212 -37.4140625 99.4296875 C-39.95591327 102.05870848 -42.7157046 104.41945133 -45.53466797 106.74511719 C-47.44148032 108.37807545 -49.0273439 110.19241359 -50.625 112.125 C-53.99028305 116.08125958 -57.65525865 119.69064658 -61.375 123.3125 C-63.40801159 125.39391663 -65.31149652 127.49002435 -67.20703125 129.69140625 C-71.49997201 134.63997078 -76.07090629 139.29220951 -80.6875 143.9375 C-81.52861328 144.79923828 -82.36972656 145.66097656 -83.23632812 146.54882812 C-84.04908203 147.36673828 -84.86183594 148.18464844 -85.69921875 149.02734375 C-86.42971436 149.76718506 -87.16020996 150.50702637 -87.9128418 151.26928711 C-90.0211876 153.01756918 -91.32300919 153.61077739 -94 154 C-96.91140581 150.7491182 -97.39948393 148.56403402 -97.49926758 144.2409668 C-97.54734306 142.5034742 -97.54734306 142.5034742 -97.59638977 140.73088074 C-97.61227646 139.48293228 -97.62816315 138.23498383 -97.64453125 136.94921875 C-97.66400314 135.6619136 -97.68347504 134.37460846 -97.70353699 133.04829407 C-97.73951538 130.32392338 -97.76107716 127.59980718 -97.77563477 124.87524414 C-97.79765647 121.39682927 -97.8800763 117.92263186 -97.97675037 114.44560528 C-98.05569221 111.11359685 -98.06385928 107.782104 -98.08203125 104.44921875 C-98.12423294 103.20734299 -98.16643463 101.96546722 -98.20991516 100.68595886 C-98.14496236 92.18989016 -98.14496236 92.18989016 -94.79281616 88.70620728 C-92.265716 86.94534573 -89.69663954 85.4805546 -87 84 C-84.19736688 81.46316502 -84.19736688 81.46316502 -83 78 C-83.06376449 76.03993515 -83.17260287 74.08110555 -83.3125 72.125 C-83.48704081 66.68066923 -83.48704081 66.68066923 -81.3984375 63.76171875 C-79.02880586 61.67259121 -76.57135196 59.83453181 -74 58 C-72.30457497 56.61380344 -70.61738205 55.21749226 -68.9375 53.8125 C-67.4966669 52.64382427 -66.05575412 51.47524494 -64.61328125 50.30859375 C-62.86250396 48.88847173 -61.11844483 47.46036306 -59.375 46.03125 C-50.06920973 38.41614256 -40.62267511 30.99770987 -31.11474609 23.63720703 C-27.96805466 21.20108226 -24.82326722 18.76267729 -21.6875 16.3125 C-21.13143066 15.8781665 -20.57536133 15.44383301 -20.00244141 14.99633789 C-15.24590506 11.25187514 -10.63416205 7.34401711 -6.0847168 3.35083008 C-2.21402568 0 -2.21402568 0 0 0 Z " fill="#FBFBFB" transform="translate(1333,1481)"/>
<path d="M0 0 C8.29984338 -0.38391346 16.13864636 1.05906419 24.25 2.625 C25.30947342 2.82657715 25.30947342 2.82657715 26.39035034 3.03222656 C43.87457051 6.37568074 60.65446823 10.85527994 77 18 C77.76666992 18.32871094 78.53333984 18.65742187 79.32324219 18.99609375 C95.48724701 25.94260822 110.55534838 33.92277577 125 44 C125.54333984 44.37205566 126.08667969 44.74411133 126.64648438 45.12744141 C140.21628611 54.42283296 152.18098379 65.00350153 163.9375 76.5 C164.84516113 77.37317871 165.75282227 78.24635742 166.68798828 79.14599609 C167.52185059 79.97437988 168.35571289 80.80276367 169.21484375 81.65625 C170.34587524 82.76709961 170.34587524 82.76709961 171.49975586 83.90039062 C173 86 173 86 172.73657227 88.27148438 C172.49350342 88.84189453 172.25043457 89.41230469 172 90 C171.34 90 170.68 90 170 90 C169.731875 90.639375 169.46375 91.27875 169.1875 91.9375 C168 94 168 94 165 95 C162.17237501 94.70830816 159.42528567 94.33795954 156.625 93.875 C155.34979492 93.66858887 155.34979492 93.66858887 154.04882812 93.45800781 C147.28154282 92.31525377 140.63823325 90.82248674 133.99609375 89.10107422 C128.85048003 87.80253491 123.72295865 86.75771615 118.48162842 85.94415283 C115.31634222 85.45089032 112.15842977 84.91620892 108.99975586 84.38244629 C107.43181727 84.12993515 105.86047275 83.89764003 104.28637695 83.68688965 C91.58580133 81.97503765 91.58580133 81.97503765 87.58496094 76.9921875 C85.7734375 73.5 85.7734375 73.5 84.43505859 70.09375 C82.26612258 65.41788114 79.43164076 63.5402418 74.6875 61.75 C69.52664968 60.70033553 64.9819598 60.49479456 59.8125 61.8125 C58.884375 61.874375 57.95625 61.93625 57 62 C55.23663856 60.38280785 53.63127926 58.74311063 52 57 C50.82984967 55.83288333 49.65506892 54.67039718 48.4765625 53.51171875 C45.83543629 50.89239751 43.19800655 48.26952008 40.5703125 45.63671875 C39.96977051 45.03561279 39.36922852 44.43450684 38.75048828 43.81518555 C36.39368136 41.37127209 34.18635338 38.81504463 32 36.21875 C28.33283518 32.15048902 24.37705826 28.35885207 20.48632812 24.50585938 C16.65552275 20.69801587 12.96627917 16.84323424 9.4921875 12.703125 C7.28334192 10.18203423 4.84352166 7.91374647 2.3828125 5.640625 C0.80305563 3.76633719 0.5149776 2.36269536 0 0 Z " fill="#FCFCFC" transform="translate(1251,1117)"/>
<path d="M0 0 C-1.45635031 4.75741102 -4.30550626 7.8113784 -7.6875 11.3125 C-8.78338511 12.47056644 -9.87844195 13.62941725 -10.97265625 14.7890625 C-11.7618042 15.62099121 -11.7618042 15.62099121 -12.56689453 16.46972656 C-14.30873401 18.32966691 -15.97363758 20.24705016 -17.625 22.1875 C-21.07960511 26.18978641 -24.8423748 29.85628021 -28.6015625 33.5703125 C-30.6198473 35.61489417 -32.51499518 37.68836018 -34.375 39.875 C-37.44021673 43.4729806 -40.7536218 46.75640718 -44.125 50.0625 C-48.24379088 54.1102991 -51.89339234 58.11818797 -55 63 C-56.02673828 62.51853516 -56.02673828 62.51853516 -57.07421875 62.02734375 C-63.1061048 59.90933837 -70.5545021 59.74046754 -76.5859375 61.9453125 C-80.48868684 64.25214203 -83.3034545 66.70873786 -85 71 C-85.4999812 73.67989926 -85.76912071 76.27562434 -86 79 C-91.20672305 80.95997758 -96.34450376 81.78960514 -101.8125 82.625 C-109.99237337 83.92015209 -118.12041245 85.38819598 -126.2421875 87.00390625 C-127.13993393 87.182099 -128.03768036 87.36029175 -128.96263123 87.54388428 C-133.47514364 88.44182022 -137.98530758 89.35020399 -142.4934082 90.27001953 C-151.6793374 92.12045376 -160.61455915 93.62970461 -170 94 C-172 91 -172 91 -171.93505859 88.65136719 C-170.67606337 85.08147474 -168.72412858 83.23947059 -166.0390625 80.578125 C-165.28125992 79.82169708 -165.28125992 79.82169708 -164.50814819 79.04998779 C-163.43511541 77.98298872 -162.35723416 76.92084648 -161.27490234 75.86328125 C-159.65495068 74.2792859 -158.05103395 72.68043535 -156.44921875 71.078125 C-149.94008175 64.61422787 -143.18806148 58.70654153 -136 53 C-134.45623881 51.71083737 -132.91426653 50.41952595 -131.375 49.125 C-124.31053939 43.50249416 -116.67054807 38.74185693 -109 34 C-108.06921631 33.41798828 -108.06921631 33.41798828 -107.11962891 32.82421875 C-87.78446459 20.86715456 -66.05883895 12.30308431 -44 7 C-42.83726562 6.70996094 -41.67453125 6.41992188 -40.4765625 6.12109375 C-32.69958918 4.32278636 -24.81245259 3.09731344 -16.9375 1.8125 C-15.84147461 1.63315918 -14.74544922 1.45381836 -13.61621094 1.26904297 C-12.57625977 1.1042041 -11.53630859 0.93936523 -10.46484375 0.76953125 C-9.06673462 0.54680542 -9.06673462 0.54680542 -7.64038086 0.31958008 C-5.06388564 0.00773244 -2.59230408 -0.05776314 0 0 Z " fill="#FBFCFB" transform="translate(1210,1117)"/>
<path d="M0 0 C1.60375655 0.27595006 3.20768123 0.55092473 4.81176758 0.82495117 C8.0153032 1.37251388 11.21828409 1.92315015 14.42089844 2.47607422 C20.64876457 3.54753329 26.885196 4.56290345 33.125 5.5625 C34.10154541 5.72137695 35.07809082 5.88025391 36.08422852 6.04394531 C40.38440167 6.73342775 44.65077664 7.33269878 48.98828125 7.73046875 C52.9375 8.25 52.9375 8.25 54.9375 10.25 C55.35 11.466875 55.7625 12.68375 56.1875 13.9375 C58.38847482 19.99018076 61.7298967 23.98267218 67.3125 27.1875 C73.47110886 28.99260949 77.9671037 28.67043093 83.9375 26.25 C87.77417363 26.25 89.57994688 27.6239983 92.25 30.1875 C94.9375 32.94269521 94.9375 32.94269521 94.9375 35.25 C95.494375 35.476875 96.05125 35.70375 96.625 35.9375 C101.46834793 38.68642721 105.00081374 43.39063634 108.6875 47.5 C114.19282415 53.58196108 119.98479008 59.36127506 125.83496094 65.11035156 C129.90549053 69.1313567 133.77949498 73.24756682 137.50097656 77.59472656 C138.59709887 78.85776348 139.7549717 80.0674717 140.9375 81.25 C140.9375 82.57 140.9375 83.89 140.9375 85.25 C132.88655511 85.46529433 125.30187906 84.96326011 117.375 83.5625 C115.83114624 83.29783936 115.83114624 83.29783936 114.25610352 83.02783203 C104.65932222 81.31933379 95.29885865 78.94365394 85.9375 76.25 C84.75800781 75.92386719 83.57851562 75.59773438 82.36328125 75.26171875 C58.57728355 68.23711966 34.96915177 56.41403423 15.09375 41.6015625 C13.13953911 40.14557864 11.16375817 38.71750913 9.15625 37.3359375 C-1.23096978 30.15653559 -10.18672238 21.18657062 -19.0625 12.25 C-19.69414063 11.62996094 -20.32578125 11.00992187 -20.9765625 10.37109375 C-27.3063728 4.1424448 -27.3063728 4.1424448 -29.0625 1.25 C-29.0625 0.26 -29.0625 -0.73 -29.0625 -1.75 C-21.0196462 -5.7714269 -8.50206899 -1.49784309 0 0 Z " fill="#FBFBFB" transform="translate(1069.0625,1559.75)"/>
<path d="M0 0 C1.89492187 0.01353516 1.89492187 0.01353516 3.828125 0.02734375 C4.79234375 0.03894531 5.7565625 0.05054688 6.75 0.0625 C7.62890625 2.12109375 7.62890625 2.12109375 7.75 5.0625 C6.09016505 7.74873751 3.90414284 9.89112713 1.6875 12.125 C1.05207275 12.78330811 0.41664551 13.44161621 -0.23803711 14.11987305 C-6.54044294 20.54967868 -13.24993889 26.41079464 -20.25 32.0625 C-20.76852539 32.48837402 -21.28705078 32.91424805 -21.82128906 33.35302734 C-35.42678744 44.48835068 -50.46010778 53.70237468 -66.35888672 61.16992188 C-68.21895204 62.04784581 -70.06507517 62.95044855 -71.91015625 63.859375 C-95.02124166 75.11481392 -119.66100285 82.03255793 -144.9375 86.3125 C-145.96528564 86.4878125 -146.99307129 86.663125 -148.05200195 86.84375 C-152.83000245 87.62569778 -157.38913709 88.29436399 -162.25 88.0625 C-161.00054151 83.48115222 -158.46972219 81.09691267 -155.1484375 77.91796875 C-153.38880833 76.19816658 -151.78522361 74.43191772 -150.1875 72.5625 C-145.02780176 66.58690293 -139.57951547 60.87532937 -134.17773438 55.11962891 C-132.23426253 53.04570619 -130.29621718 50.96683285 -128.359375 48.88671875 C-125.23675319 45.53518071 -122.10007052 42.19738262 -118.95263672 38.86914062 C-117.85847081 37.70813866 -116.76857202 36.5430922 -115.68408203 35.37304688 C-114.32216629 33.90419823 -112.94297267 32.45142207 -111.5625 31 C-110.81613281 30.20464844 -110.06976562 29.40929688 -109.30078125 28.58984375 C-107.25 27.0625 -107.25 27.0625 -105.12109375 27.25 C-103.73678024 27.85112152 -102.36468796 28.48056402 -101 29.125 C-95.71957822 30.92514379 -91.16010816 30.74317438 -86.125 28.5 C-80.6098143 25.42276476 -76.94243425 21.37061415 -75.125 15.3125 C-73.25 12.0625 -73.25 12.0625 -70.8626709 11.15945435 C-69.8786731 10.93683929 -68.89467529 10.71422424 -67.88085938 10.48486328 C-66.79748291 10.23947815 -65.71410645 9.99409302 -64.59790039 9.74127197 C-59.51029822 8.70978317 -54.41187493 7.84184229 -49.28125 7.0546875 C-48.19791382 6.88373566 -47.11457764 6.71278381 -45.99841309 6.53665161 C-42.5830484 5.9985273 -39.16661368 5.46763086 -35.75 4.9375 C-32.30503664 4.39895376 -28.86032411 3.85886848 -25.41589355 3.31692505 C-23.28384154 2.98188317 -21.15144729 2.64901012 -19.01867676 2.318573 C-18.05667358 2.16816559 -17.09467041 2.01775818 -16.10351562 1.86279297 C-15.2603479 1.73194305 -14.41718018 1.60109314 -13.54846191 1.46627808 C-11.27226287 1.09835854 -11.27226287 1.09835854 -9.16247559 0.51858521 C-6.1200566 -0.20696774 -3.11714627 -0.02886247 0 0 Z " fill="#FBFCFC" transform="translate(1413.25,1557.9375)"/>
<path d="M0 0 C0.41962805 9.27484782 0.73809393 18.54637075 0.93261909 27.82868385 C1.02606107 32.14085706 1.152371 36.44648171 1.35791016 40.75488281 C2.75903538 70.90710723 2.75903538 70.90710723 -3.78588867 78.23364258 C-7.42506615 81.39099847 -11.3140743 83.67943293 -15.63954163 85.77008057 C-19.62832065 87.84843826 -23.04143664 90.66220968 -26.5625 93.4375 C-27.88139361 94.42811225 -29.202619 95.41563675 -30.52734375 96.3984375 C-34.73115867 99.54090989 -38.87547044 102.7543551 -43 106 C-44.08835893 106.85049432 -45.17691767 107.70073297 -46.265625 108.55078125 C-51.74376804 112.83417096 -57.19753961 117.13738669 -62.5625 121.5625 C-67.63725971 125.74259837 -72.82824386 129.75103125 -78.0546875 133.73828125 C-79.98510179 135.22065509 -81.88911586 136.73820511 -83.76171875 138.29296875 C-86 140 -86 140 -87.9375 140 C-90.95469628 138.53711696 -93.38768934 137.13931317 -96 135 C-96.74462891 131.68774414 -96.74462891 131.68774414 -96.7265625 127.78515625 C-96.72805801 126.74602333 -96.72805801 126.74602333 -96.72958374 125.68589783 C-96.72491367 124.2241567 -96.70552142 122.76239785 -96.67236328 121.30102539 C-96.62520641 119.07225551 -96.6312347 116.84828202 -96.64453125 114.61914062 C-96.55080497 102.65776611 -96.55080497 102.65776611 -92 98 C-90.12757717 96.44512256 -88.20538352 94.94916748 -86.25 93.5 C-81.15267744 89.67409366 -76.17533318 85.73220471 -71.25 81.6875 C-65.49563654 76.98666335 -59.69088428 72.35749157 -53.8125 67.8125 C-53.10577148 67.25973389 -52.39904297 66.70696777 -51.67089844 66.13745117 C-50.66784668 65.36751831 -50.66784668 65.36751831 -49.64453125 64.58203125 C-48.76825073 63.90491089 -48.76825073 63.90491089 -47.87426758 63.21411133 C-45.68180968 61.79388297 -43.4454565 60.90256184 -41 60 C-41.01160156 59.24904053 -41.02320313 58.49808105 -41.03515625 57.72436523 C-41.06478247 54.29433728 -41.03292776 50.86747472 -41 47.4375 C-41.01933594 46.25607422 -41.03867188 45.07464844 -41.05859375 43.85742188 C-40.91344341 35.22097677 -40.91344341 35.22097677 -38.29516602 31.72119141 C-36.28046671 29.95689745 -34.24086283 28.46172954 -32 27 C-30.86884766 26.02546875 -30.86884766 26.02546875 -29.71484375 25.03125 C-29.12832031 24.5259375 -28.54179688 24.020625 -27.9375 23.5 C-24.74385263 20.7110058 -21.75485955 17.77772715 -18.78515625 14.75390625 C-16.26907505 12.28187023 -13.59980893 10.00482664 -10.921875 7.7109375 C-9.07843943 6.06983023 -7.38502699 4.35246658 -5.6875 2.5625 C-3 0 -3 0 0 0 Z " fill="#FCFCFC" transform="translate(1332,1394)"/>
<path d="M0 0 C0.2571479 19.8102289 0.451027 39.62011846 0.56993389 59.43167114 C0.62661655 68.63095949 0.70386812 77.82920996 0.82983398 87.02783203 C0.93959561 95.04697843 1.01046798 103.06537318 1.03497344 111.0852499 C1.04929591 115.33084117 1.08285978 119.57428251 1.16303062 123.81918335 C1.2379542 127.81882471 1.26068141 131.81544121 1.24418449 135.8157177 C1.24719991 137.27995213 1.2689433 138.74429224 1.31126022 140.20791817 C1.61463676 151.24648049 1.61463676 151.24648049 -2.39000511 155.59558105 C-5.17641415 157.64245645 -7.97078329 159.34087227 -11 161 C-12.37017626 161.95663564 -13.72853238 162.93098864 -15.0625 163.9375 C-15.68769531 164.40542969 -16.31289062 164.87335938 -16.95703125 165.35546875 C-20.3526462 168.0888414 -23.52225095 171.06860439 -26.703125 174.046875 C-28.77706839 175.81043231 -30.56529322 176.84860526 -33 178 C-33.25732794 158.74585779 -33.45111473 139.49206599 -33.56993389 120.23655891 C-33.62657865 111.29514093 -33.70375681 102.35479329 -33.82983398 93.4140625 C-33.93971276 85.61829928 -34.01049551 77.82331135 -34.03497344 70.02679527 C-34.04927635 65.90071775 -34.08271294 61.77685743 -34.16303062 57.65149307 C-34.23814069 53.76180735 -34.26064474 49.87523396 -34.24418449 45.98489189 C-34.24719171 44.56341897 -34.26882443 43.14183367 -34.31126022 41.72099113 C-34.48495963 35.60093744 -34.50875604 30.90189639 -30.60560036 25.98168564 C-27.84412953 23.44676434 -25.03014883 21.20219774 -22 19 C-20.67674388 17.88767159 -19.36138398 16.76569349 -18.0625 15.625 C-17.44246094 15.09003906 -16.82242187 14.55507812 -16.18359375 14.00390625 C-12.666724 10.77643902 -9.34480169 7.34965684 -6.03540039 3.91064453 C-2.21513575 0 -2.21513575 0 0 0 Z " fill="#FBFBFB" transform="translate(1378,1350)"/>
<path d="M0 0 C14.61243171 -0.15817706 29.22432988 -0.28705428 43.83742619 -0.3626852 C50.62296823 -0.39873962 57.40793958 -0.44786972 64.19311523 -0.52807617 C70.74181915 -0.60545025 77.29015303 -0.64599699 83.83929253 -0.6641407 C86.33720669 -0.67706974 88.8350886 -0.70231765 91.33275032 -0.7401104 C94.83330352 -0.79096913 98.33141187 -0.79792158 101.83227539 -0.79467773 C103.37947517 -0.83242813 103.37947517 -0.83242813 104.95793152 -0.87094116 C110.1911372 -0.81850869 113.18112697 -0.43257813 116.96751404 3.34654236 C117.98323292 4.56028589 118.99414387 5.77807052 120 7 C121.20884323 8.10596558 122.43627932 9.19221523 123.6875 10.25 C126.68128844 12.82442508 129.59550873 15.46986043 132.48657227 18.15917969 C133.26665649 18.88476074 133.26665649 18.88476074 134.0625 19.625 C134.57675537 20.10356445 135.09101074 20.58212891 135.62084961 21.07519531 C138.37499465 23.60824972 141.14081636 25.91880203 144.25 28 C145.61125 28.99 145.61125 28.99 147 30 C147 30.99 147 31.98 147 33 C98.49 33 49.98 33 0 33 C0 22.11 0 11.22 0 0 Z " fill="#FDFDFD" transform="translate(1089,1269)"/>
<path d="M0 0 C4.57109646 0.88170008 7.11193144 3.54095384 10.375 6.6875 C11.0047876 7.294729 11.6345752 7.90195801 12.28344727 8.52758789 C13.70796674 9.90475304 15.13008974 11.28439976 16.55029297 12.66601562 C18.78279184 14.79305262 21.05702588 16.86421784 23.35400391 18.92118835 C25.4023957 20.76913963 27.41729911 22.65144155 29.42828369 24.53994751 C30.90684653 25.90911451 32.42173754 27.2387146 33.93701172 28.56713867 C38.03023177 32.4686127 40.72850548 35.11072036 41.55126953 40.83618164 C41.59357375 43.46484702 41.40278496 45.93285849 41.15844727 48.56445312 C40.91481885 53.84694778 42.63837043 57.97304791 46 62 C47.39160934 62.87497739 48.78501749 63.74709695 50.1796875 64.6171875 C52.65606662 66.41775221 53.82101679 67.29992551 54.58691406 70.2956543 C54.63675178 73.10061647 54.43465727 75.77418656 54.125 78.5625 C54.04564209 79.56595459 53.96628418 80.56940918 53.88452148 81.60327148 C53.71296838 83.6941876 53.5221895 85.78360829 53.31298828 87.87109375 C53.00982948 90.90173583 52.76074392 93.93202727 52.52734375 96.96875 C50.96283236 116.13483448 50.96283236 116.13483448 46 122 C41.99492775 121.48490321 40.56440282 119.72705872 38.125 116.6171875 C34.12664615 111.40266768 30.96457777 105.97652503 28 100.125 C27.23417603 98.63323242 27.23417603 98.63323242 26.45288086 97.11132812 C21.67324719 87.6408652 17.62833324 77.9625421 14 68 C13.75701172 67.34128906 13.51402344 66.68257812 13.26367188 66.00390625 C7.77228728 50.95344475 4.38202561 35.29414813 1.1875 19.625 C0.96835937 18.56104004 0.74921875 17.49708008 0.5234375 16.40087891 C-1.95624328 3.91248657 -1.95624328 3.91248657 0 0 Z " fill="#FBFBFB" transform="translate(968,1405)"/>
<path d="M0 0 C1.9375 0.3125 1.9375 0.3125 4 1 C4.495 2.485 4.495 2.485 5 4 C7.50447516 5.21869929 7.50447516 5.21869929 10 6 C10.74646416 15.66234321 11.41420695 25.32670683 12 35 C12.06316406 36.0096582 12.12632812 37.01931641 12.19140625 38.05957031 C12.33146026 40.54014237 12.42725994 43.01667571 12.5 45.5 C12.54253906 46.20302246 12.58507812 46.90604492 12.62890625 47.63037109 C12.65625 49.59375 12.65625 49.59375 12 53 C9.11328125 55.75 9.11328125 55.75 6 58 C1.44205301 63.89411227 0.72601151 69.73930508 1 77 C1.33 77.66 1.66 78.32 2 79 C2.35206905 82.46092751 2.45987843 84.32567809 0.47119141 87.24169922 C-0.22828613 87.92248535 -0.92776367 88.60327148 -1.6484375 89.3046875 C-2.40640625 90.05234375 -3.164375 90.8 -3.9453125 91.5703125 C-4.74710938 92.33085938 -5.54890625 93.09140625 -6.375 93.875 C-7.1690625 94.65875 -7.963125 95.4425 -8.78125 96.25 C-14.69152875 102 -14.69152875 102 -17 102 C-17.33 102.99 -17.66 103.98 -18 105 C-19.42578125 106.40234375 -19.42578125 106.40234375 -21.3125 107.9375 C-25.81011538 111.72496558 -29.89002309 115.85390379 -33.9621582 120.08764648 C-35.27211898 121.42790771 -36.63237164 122.71863743 -38 124 C-38.66 124 -39.32 124 -40 124 C-40.71404671 111.26616693 -38.65126736 99.42267877 -36 87 C-35.84515137 86.27135742 -35.69030273 85.54271484 -35.53076172 84.79199219 C-34.51543038 80.14373112 -33.31508074 75.57003975 -32 71 C-31.79101074 70.26120605 -31.58202148 69.52241211 -31.36669922 68.76123047 C-27.93591661 56.91411768 -23.26545078 45.72290066 -18.0625 34.5625 C-17.77385071 33.9405072 -17.48520142 33.3185144 -17.18780518 32.67767334 C-13.41970867 24.59959446 -9.30149839 16.8233864 -4.79467773 9.13647461 C-3.07959982 6.13911289 -1.51327296 3.10330403 0 0 Z " fill="#FBFBFB" transform="translate(1008,1239)"/>
<path d="M0 0 C2.52631214 3.57004673 4.68682158 7.37590063 6.90332031 11.14453125 C7.92720474 12.87683794 8.97446757 14.59526737 10.0234375 16.3125 C15.24705525 25.06670524 19.25786065 34.13781432 23.03857422 43.59619141 C23.96263641 45.90658155 24.90398561 48.20928343 25.84765625 50.51171875 C31.8021573 65.22302956 36.8561829 80.23257098 39 96 C39.34480222 97.93918841 39.69889281 99.87674948 40.0625 101.8125 C41.42342588 109.31366629 42.13804631 116.37677624 42 124 C38.38329998 123.41636672 36.64799676 122.05161868 34.04174805 119.52514648 C33.27803391 118.79025497 32.51431976 118.05536346 31.72746277 117.29820251 C30.91376724 116.49725662 30.10007172 115.69631073 29.26171875 114.87109375 C28.42155716 114.04803238 27.58139557 113.22497101 26.71577454 112.37696838 C24.94227979 110.63181407 23.17311162 108.88225367 21.40795898 107.12866211 C18.70102879 104.4508831 15.96384488 101.80677809 13.22460938 99.16210938 C11.50584143 97.46292898 9.78897876 95.76181874 8.07421875 94.05859375 C6.83849373 92.87842934 6.83849373 92.87842934 5.57780457 91.67442322 C0.14642993 86.17766981 0.14642993 86.17766981 -0.28044128 82.74453735 C-0.01953125 80.58813477 -0.01953125 80.58813477 1 77 C1.63266052 70.44522218 0.93375868 65.42744675 -3 60 C-5.71582016 57.21764527 -8.51073227 54.74463387 -12 53 C-11.86100313 49.08305929 -11.71261867 45.16652898 -11.5625 41.25 C-11.52318359 40.13882812 -11.48386719 39.02765625 -11.44335938 37.8828125 C-11.40146484 36.81289062 -11.35957031 35.74296875 -11.31640625 34.640625 C-11.27974854 33.65610352 -11.24309082 32.67158203 -11.20532227 31.65722656 C-11.02293896 29.29687003 -10.5975878 27.27810201 -10 25 C-9.87173305 23.66823863 -9.77898605 22.33266114 -9.71875 20.99609375 C-9.66267578 19.88524414 -9.66267578 19.88524414 -9.60546875 18.75195312 C-9.53497861 17.20508621 -9.464667 15.65821115 -9.39453125 14.11132812 C-8.97909763 5.89577017 -8.97909763 5.89577017 -5.0625 2.3125 C-2 0 -2 0 0 0 Z " fill="#FAFAFA" transform="translate(1452,1239)"/>
<path d="M0 0 C0.35521801 8.43989466 -0.6891464 16.22973437 -2.3125 24.5 C-2.52583984 25.64597656 -2.73917969 26.79195312 -2.95898438 27.97265625 C-4.31459444 35.08657413 -5.95927175 42.05205134 -8 49 C-8.20536377 49.7007666 -8.41072754 50.4015332 -8.62231445 51.12353516 C-16.48481523 77.14735067 -27.92330651 100.21759065 -44 122 C-46.48292001 121.66447027 -48.48208477 121.32423286 -50.62231445 119.984375 C-52.82489856 116.81184201 -52.59878146 113.30426777 -52.73046875 109.5625 C-52.770616 108.7271875 -52.81076324 107.891875 -52.85212708 107.03125 C-52.97720653 104.35457776 -53.08229627 101.67751928 -53.1875 99 C-53.26893734 97.22780694 -53.35160642 95.45567002 -53.43554688 93.68359375 C-53.62837519 89.51099369 -53.78424217 85.3382456 -53.92071533 81.16345215 C-53.99101914 79.24506201 -54.09259254 77.32787434 -54.19873047 75.41113281 C-54.25697998 73.94691895 -54.25697998 73.94691895 -54.31640625 72.453125 C-54.35838135 71.65036133 -54.40035645 70.84759766 -54.44360352 70.02050781 C-54 68 -54 68 -52.01049805 66.18115234 C-50.46132187 65.20034764 -48.87626183 64.27466446 -47.265625 63.3984375 C-43.2308045 60.90797933 -41.88653592 57.36409577 -40.25 53 C-39.71374135 48.70993083 -39.74570788 44.87647406 -40.953125 40.71484375 C-41 37 -41 37 -39.82666016 35.27514648 C-37.92436888 33.36062969 -35.93750974 31.61593322 -33.875 29.875 C-32.31399272 28.49115917 -30.7568934 27.1029012 -29.203125 25.7109375 C-28.36587891 24.96553711 -27.52863281 24.22013672 -26.66601562 23.45214844 C-23.79308217 20.80968107 -21.03110973 18.07315255 -18.296875 15.2890625 C-17.82375885 14.80807098 -17.3506427 14.32707947 -16.8631897 13.83151245 C-14.52367473 11.44781316 -12.19413725 9.05508322 -9.87060547 6.65576172 C-9.01869629 5.78967285 -8.16678711 4.92358398 -7.2890625 4.03125 C-6.53318848 3.25330078 -5.77731445 2.47535156 -4.99853516 1.67382812 C-3 0 -3 0 0 0 Z " fill="#FBFBFB" transform="translate(1494,1405)"/>
<path d="M0 0 C3 1 3 1 4.52709961 3.8503418 C5.08020686 5.12844472 5.62103554 6.41190127 6.15234375 7.69921875 C6.44890869 8.3940889 6.74547363 9.08895905 7.05102539 9.80488586 C8.02436701 12.09453852 8.98133041 14.39062886 9.9375 16.6875 C10.60368265 18.26781659 11.2704357 19.84789284 11.93774414 21.42773438 C13.97920246 26.27664758 15.99432557 31.13618984 18 36 C18.31372559 36.76056702 18.62745117 37.52113403 18.95068359 38.30474854 C20.96480522 43.19574977 22.95833911 48.09475769 24.9375 53 C25.19820282 53.642789 25.45890564 54.285578 25.72750854 54.94784546 C26.4583057 56.75454085 27.18054694 58.56469006 27.90234375 60.375 C28.30960693 61.39335938 28.71687012 62.41171875 29.13647461 63.4609375 C30 66 30 66 30 69 C11.19 69 -7.62 69 -27 69 C-23.62358277 58.8707483 -23.62358277 58.8707483 -21.65234375 54.05859375 C-21.21664062 52.9917334 -20.7809375 51.92487305 -20.33203125 50.82568359 C-19.64173828 49.14853271 -19.64173828 49.14853271 -18.9375 47.4375 C-18.21820312 45.67913818 -18.21820312 45.67913818 -17.484375 43.88525391 C-15.06630277 37.98525288 -12.62632071 32.0949029 -10.16015625 26.21484375 C-9.7122876 25.1462915 -9.26441895 24.07773926 -8.80297852 22.97680664 C-7.95916656 20.96806936 -7.11219958 18.9606533 -6.26147461 16.95483398 C-3.91329671 11.37429077 -1.8137099 5.77719947 0 0 Z " fill="#F9F9FA" transform="translate(2200,1334)"/>
<path d="M0 0 C3 1 3 1 4.22338867 3.38232422 C4.6176001 4.4292041 5.01181152 5.47608398 5.41796875 6.5546875 C5.86358154 7.71742187 6.30919434 8.88015625 6.76831055 10.078125 C7.11555679 11.0072168 7.11555679 11.0072168 7.46981812 11.95507812 C8.43483744 14.53666998 9.42385296 17.10881365 10.41242981 19.68145752 C10.90870113 20.97296222 11.40380671 22.26491547 11.89775085 23.55731201 C13.88760242 28.75252759 15.99692157 33.88680032 18.1875 39 C21.02603622 45.66085415 23.79530394 52.34606816 26.5 59.0625 C27.02630005 60.35897461 27.02630005 60.35897461 27.56323242 61.68164062 C27.88267822 62.47892578 28.20212402 63.27621094 28.53125 64.09765625 C28.81548828 64.80414307 29.09972656 65.51062988 29.39257812 66.23852539 C30 68 30 68 30 70 C10.86 70 -8.28 70 -28 70 C-26.70300816 66.10902448 -25.45090807 62.59122302 -23.78515625 58.89453125 C-23.35146729 57.92410889 -22.91777832 56.95368652 -22.47094727 55.95385742 C-22.00615967 54.91720947 -21.54137207 53.88056152 -21.0625 52.8125 C-16.92528469 43.49218689 -12.92107538 34.12667596 -9.0625 24.6875 C-8.61463135 23.59864502 -8.1667627 22.50979004 -7.70532227 21.38793945 C-4.84480153 14.34528888 -2.31590012 7.2397228 0 0 Z " fill="#F8F8F8" transform="translate(1886,1333)"/>
<path d="M0 0 C0 0.66 0 1.32 0 2 C0.66 2.33 1.32 2.66 2 3 C0 6 -2 9 -4 12 C-4.66 12 -5.32 12 -6 12 C-6 12.66 -6 13.32 -6 14 C-7.71641978 15.56197114 -9.49938639 17.05139042 -11.3125 18.5 C-12.29863281 19.2940625 -13.28476563 20.088125 -14.30078125 20.90625 C-17 23 -17 23 -20 25 C-20.33 24.01 -20.66 23.02 -21 22 C-21.99 21.67 -22.98 21.34 -24 21 C-24 19 -24 19 -21.75 16.6875 C-20.38875 15.3571875 -20.38875 15.3571875 -19 14 C-18.09507813 12.82824219 -18.09507813 12.82824219 -17.171875 11.6328125 C-14.82543202 8.78838342 -12.33814975 6.53833008 -9.5 4.1875 C-8.09234375 3.00220703 -8.09234375 3.00220703 -6.65625 1.79296875 C-4 0 -4 0 0 0 Z " fill="#121211" transform="translate(1064,1511)"/>
<path d="M0 0 C0.66 0 1.32 0 2 0 C2 17.16 2 34.32 2 52 C1.67 52 1.34 52 1 52 C1 35.83 1 19.66 1 3 C0.34 3 -0.32 3 -1 3 C-0.67 2.01 -0.34 1.02 0 0 Z " fill="#D0D0CF" transform="translate(2552,1361)"/>
<path d="M0 0 C0.33 0 0.66 0 1 0 C1.99 7.26 2.98 14.52 4 22 C0 21 0 21 -1 20 C-1.366142 13.26944849 -1.02358943 6.6533313 0 0 Z " fill="#272629" transform="translate(1504,1340)"/>
<path d="M0 0 C2.32789515 2.83395931 3.07377893 4.29511572 4 8 C-7.22 8 -18.44 8 -30 8 C-30 7.67 -30 7.34 -30 7 C-20.43 6.67 -10.86 6.34 -1 6 C-0.67 4.02 -0.34 2.04 0 0 Z " fill="#292926" transform="translate(1980,1463)"/>
<path d="M0 0 C0.66 0 1.32 0 2 0 C2 15.51 2 31.02 2 47 C1.67 47 1.34 47 1 47 C0.98018066 45.70787598 0.96036133 44.41575195 0.93994141 43.08447266 C0.86401632 38.30220655 0.77527922 33.52024995 0.68261719 28.73828125 C0.64427315 26.66640319 0.60942995 24.59445731 0.578125 22.52246094 C0.53259191 19.54858113 0.47457882 16.57517038 0.4140625 13.6015625 C0.40251129 12.67131256 0.39096008 11.74106262 0.37905884 10.78262329 C0.35918915 9.92188202 0.33931946 9.06114075 0.31884766 8.17431641 C0.30552399 7.41486725 0.29220032 6.65541809 0.2784729 5.87295532 C0.15382948 3.7568774 0.15382948 3.7568774 -2 2 C-1.34 1.34 -0.68 0.68 0 0 Z " fill="#858585" transform="translate(1388,1321)"/>
<path d="M0 0 C0.33 0 0.66 0 1 0 C1.05390357 2.93774463 1.0936255 5.87450232 1.125 8.8125 C1.15013672 10.06256836 1.15013672 10.06256836 1.17578125 11.33789062 C1.18222656 12.14033203 1.18867187 12.94277344 1.1953125 13.76953125 C1.20578613 14.50792236 1.21625977 15.24631348 1.22705078 16.00708008 C1 18 1 18 -1 21 C-2.51708428 6.21867882 -2.51708428 6.21867882 0 0 Z " fill="#191819" transform="translate(1290,1366)"/>
<path d="M0 0 C0.66 0.33 1.32 0.66 2 1 C1.67 9.25 1.34 17.5 1 26 C0.67 26 0.34 26 0 26 C-0.19583915 21.85451585 -0.38027842 17.7086033 -0.5625 13.5625 C-0.61857422 12.37849609 -0.67464844 11.19449219 -0.73242188 9.97460938 C-0.78076172 8.84990234 -0.82910156 7.72519531 -0.87890625 6.56640625 C-0.9260376 5.52427979 -0.97316895 4.48215332 -1.02172852 3.40844727 C-1 1 -1 1 0 0 Z " fill="#111112" transform="translate(1234,1131)"/>
<path d="M0 0 C7.48291572 6.15034169 7.48291572 6.15034169 10 10 C7 10 7 10 4.95703125 8.25 C4.24933594 7.5075 3.54164062 6.765 2.8125 6 C2.09707031 5.2575 1.38164063 4.515 0.64453125 3.75 C0.10183594 3.1725 -0.44085937 2.595 -1 2 C-0.67 1.34 -0.34 0.68 0 0 Z " fill="#161616" transform="translate(1171,1585)"/>
<path d="M0 0 C0.33 0 0.66 0 1 0 C0.96519531 1.35544922 0.96519531 1.35544922 0.9296875 2.73828125 C0.91164063 3.91777344 0.89359375 5.09726563 0.875 6.3125 C0.85179687 7.48425781 0.82859375 8.65601563 0.8046875 9.86328125 C0.74679382 13.16393661 0.74679382 13.16393661 3 16 C2.01 16 1.02 16 0 16 C-3.25979381 8.77938144 -3.25979381 8.77938144 -2.25 5.75 C-1.8375 5.1725 -1.425 4.595 -1 4 C-0.63215869 2.6757713 -0.28797019 1.34386088 0 0 Z " fill="#212223" transform="translate(1251,1222)"/>
<path d="M0 0 C1.67110042 2.96178773 2.32682752 5.37071192 2.625 8.75 C2.69976563 9.54921875 2.77453125 10.3484375 2.8515625 11.171875 C2.90054688 11.77515625 2.94953125 12.3784375 3 13 C2.01 12.67 1.02 12.34 0 12 C-0.19573608 10.56359829 -0.38127816 9.12580496 -0.5625 7.6875 C-0.66691406 6.88699219 -0.77132812 6.08648438 -0.87890625 5.26171875 C-1 3 -1 3 0 0 Z " fill="#2B2C2E" transform="translate(975,1449)"/>
<path d="M0 0 C0.66 0.66 1.32 1.32 2 2 C1.071875 2.680625 0.14375 3.36125 -0.8125 4.0625 C-4.31386639 6.94305675 -5.50631023 9.76787899 -7 14 C-7.66 14 -8.32 14 -9 14 C-7.64002446 7.95566426 -4.14348206 4.36505864 0 0 Z " fill="#222223" transform="translate(1217,1089)"/>
<path d="M0 0 C2.15377564 2.62198774 3.40072174 4.64404172 4 8 C2.02 8 0.04 8 -2 8 C-1.34 5.36 -0.68 2.72 0 0 Z " fill="#1D1C1C" transform="translate(1980,1463)"/>
<path d="M0 0 C0.79921875 0.11085938 1.5984375 0.22171875 2.421875 0.3359375 C3.32679687 0.47902344 3.32679687 0.47902344 4.25 0.625 C4.25 0.955 4.25 1.285 4.25 1.625 C-1.03 2.285 -6.31 2.945 -11.75 3.625 C-5.17168675 -0.76054217 -5.17168675 -0.76054217 0 0 Z " fill="#333132" transform="translate(1385.75,1560.375)"/>
<path d="M0 0 C0.99 1.32 1.98 2.64 3 4 C2.67 4.66 2.34 5.32 2 6 C0.68 5.67 -0.64 5.34 -2 5 C-2.33 3.68 -2.66 2.36 -3 1 C-2.01 0.67 -1.02 0.34 0 0 Z " fill="#111011" transform="translate(994,1501)"/>
<path d="M0 0 C3.51716303 3.51716303 3.54676163 5.19567333 4 10 C2.68 9.67 1.36 9.34 0 9 C0 6.03 0 3.06 0 0 Z " fill="#333334" transform="translate(1504,1352)"/>
<path d="M0 0 C0.33 0 0.66 0 1 0 C1.05422947 1.4370809 1.09289723 2.87475462 1.125 4.3125 C1.14820313 5.11300781 1.17140625 5.91351562 1.1953125 6.73828125 C1 9 1 9 -1 12 C-2 11 -2 11 -2.1875 8.8125 C-1.97397604 5.60964058 -1.11554182 2.99801865 0 0 Z " fill="#424345" transform="translate(1453,1307)"/>
<path d="M0 0 C0.99 0.33 1.98 0.66 3 1 C2.01 2.485 2.01 2.485 1 4 C0.83300768 7.12521833 0.83300768 7.12521833 1 10 C0.34 9.67 -0.32 9.34 -1 9 C-1.73075648 6.6859378 -2.40138258 4.35171131 -3 2 C-2.01 2 -1.02 2 0 2 C0 1.34 0 0.68 0 0 Z " fill="#2B2C2E" transform="translate(1453,1438)"/>
<path d="M0 0 C0.66 0 1.32 0 2 0 C2 4.29 2 8.58 2 13 C1.67 13 1.34 13 1 13 C0.92652344 12.06027344 0.92652344 12.06027344 0.8515625 11.1015625 C0.77679687 10.28429688 0.70203125 9.46703125 0.625 8.625 C0.55539062 7.81289062 0.48578125 7.00078125 0.4140625 6.1640625 C0.17107412 3.79665809 0.17107412 3.79665809 -2 2 C-1.34 1.34 -0.68 0.68 0 0 Z " fill="#504F4E" transform="translate(1388,1321)"/>
<path d="M0 0 C0.66 0.33 1.32 0.66 2 1 C-0.31 3.31 -2.62 5.62 -5 8 C-5.99 7.67 -6.98 7.34 -8 7 C-5.36 4.69 -2.72 2.38 0 0 Z " fill="#272727" transform="translate(1260,1460)"/>
<path d="M0 0 C0.99 0.33 1.98 0.66 3 1 C1.8553125 1.8971875 1.8553125 1.8971875 0.6875 2.8125 C-1.3483575 4.46959332 -3.1978279 6.10297674 -5 8 C-5.66 7.67 -6.32 7.34 -7 7 C-4.69 4.69 -2.38 2.38 0 0 Z " fill="#3A3A3A" transform="translate(1360,1348)"/>
<path d="M0 0 C0.66 0.33 1.32 0.66 2 1 C2 1.66 2 2.32 2 3 C3.98 3 5.96 3 8 3 C8 3.66 8 4.32 8 5 C7.01 5.33 6.02 5.66 5 6 C5 5.34 5 4.68 5 4 C3.68 4.33 2.36 4.66 1 5 C0.34 3.68 -0.32 2.36 -1 1 C-0.67 0.67 -0.34 0.34 0 0 Z " fill="#202021" transform="translate(1038,1208)"/>
<path d="M0 0 C0 3 0 3 -1.3125 4.38671875 C-2.875 5.59114583 -4.4375 6.79557292 -6 8 C-6.66 7.67 -7.32 7.34 -8 7 C-5.36 4.69 -2.72 2.38 0 0 Z " fill="#2F2F2F" transform="translate(1408,1576)"/>
<path d="M0 0 C1.98 1.65 3.96 3.3 6 5 C5.34 5.66 4.68 6.32 4 7 C2.35 5.02 0.7 3.04 -1 1 C-0.67 0.67 -0.34 0.34 0 0 Z " fill="#1D1D1C" transform="translate(1199,1613)"/>
<path d="M0 0 C0.66 0.66 1.32 1.32 2 2 C-0.97 4.475 -0.97 4.475 -4 7 C-4 4 -4 4 -2 1.8125 C-1.34 1.214375 -0.68 0.61625 0 0 Z " fill="#141414" transform="translate(1045,1194)"/>
</svg>
